<svg xmlns="http://www.w3.org/2000/svg" viewBox="0 0 600 500"><defs><style>.cls-1{isolation:isolate;}.cls-2{mix-blend-mode:multiply;opacity:0.27;}.cls-3{fill:#65a9d8;}.cls-4{fill:#9ed4f2;}.cls-5{fill:#f9e566;}.cls-6{fill:#f56064;}.cls-7{fill:#ca2f5f;}.cls-8{fill:#d88c3b;}.cls-9{fill:#fff;}.cls-10{fill:#fba788;}.cls-11{fill:#2c447e;}.cls-12{fill:#b7e0e9;}</style></defs><g class="cls-1"><g id="layer_1" data-name="layer 1"><g class="cls-2"><ellipse class="cls-3" cx="305.22" cy="422.98" rx="256" ry="30.16"/></g><path class="cls-3" d="M107.07,338.69c6.63,9,21.25,29.3,16,46.31-.78,2.55-3,9.75-9.57,13.27-5.55,3-11.36,1.83-13.85,1.34-11.13-2.2-25.89-12.46-36.6-32.93C45.62,333.37,49,292.26,49,292.25h0C80.9,307.15,98.43,327,107.07,338.69Z"/><rect class="cls-4" x="80.59" y="283.2" width="1.28" height="124.13" transform="translate(-167.71 92.61) rotate(-31.34)"/><rect class="cls-4" x="74.48" y="304.28" width="1.28" height="38.01" transform="translate(-66.17 22.96) rotate(-12.11)"/><rect class="cls-4" x="73.93" y="339.01" width="1.28" height="37.15" transform="translate(-289.15 323.88) rotate(-72.93)"/><rect class="cls-4" x="77.4" y="352.02" width="45.28" height="1.28" transform="translate(-252.94 451.57) rotate(-89.82)"/><path class="cls-5" d="M82,375.78c7.07,1.32,22.89,4.46,27.9,14.77.75,1.55,2.87,5.91,1.33,10.47-1.3,3.83-4.55,5.85-5.94,6.71-6.21,3.86-17.67,5.52-31.72.59-22.86-8-39.36-28.85-39.36-28.86h0C55.8,372.43,72.77,374.06,82,375.78Z"/><rect class="cls-6" x="72.3" y="350.25" width="0.83" height="79.98" transform="translate(-322.68 355.12) rotate(-74.37)"/><rect class="cls-6" x="59.76" y="370.33" width="0.83" height="24.49" transform="translate(-288.16 213.32) rotate(-55.15)"/><rect class="cls-6" x="63.03" y="398.56" width="23.94" height="0.83" transform="translate(-166.96 72.99) rotate(-25.94)"/><rect class="cls-6" x="84.41" y="370.87" width="0.83" height="29.17" transform="translate(-239.5 160.54) rotate(-42.85)"/><path class="cls-7" d="M457.06,106.17c-4.25,8.41-14,27.12-28.76,29.64-2.22.38-8.47,1.44-13.63-2.16-4.34-3-5.69-7.85-6.26-9.91-2.57-9.21-.46-24.21,10.87-40,18.43-25.77,50.63-38.88,50.63-38.88h0C470.84,74.51,462.59,95.22,457.06,106.17Z"/><rect class="cls-6" x="389.99" y="88.62" width="104.61" height="1.22" transform="translate(132.84 417.6) rotate(-58.1)"/><rect class="cls-6" x="440.49" y="75.67" width="32.03" height="1.22" transform="translate(53.35 303.61) rotate(-38.9)"/><rect class="cls-6" x="429.88" y="73.24" width="1.22" height="31.31" transform="translate(-8.82 73.8) rotate(-9.7)"/><rect class="cls-6" x="424.8" y="105.57" width="38.16" height="1.22" transform="translate(-0.55 210.03) rotate(-26.61)"/><path class="cls-5" d="M448.17,146.7c-6.39,3.28-20.8,10.46-31.05,5.38-1.54-.76-5.88-2.91-7.44-7.45-1.31-3.83,0-7.4.59-8.93,2.54-6.84,10.58-15.15,24.68-19.83,22.95-7.63,48.71-1.27,48.71-1.27h0C470.9,133.35,456.51,142.43,448.17,146.7Z"/><rect class="cls-8" x="406.75" y="129.25" width="79.84" height="0.73" transform="translate(-15.97 177.38) rotate(-22.08)"/><rect class="cls-8" x="449.03" y="127.64" width="24.44" height="0.73" transform="translate(-5.79 23.06) rotate(-2.85)"/><rect class="cls-8" x="427.59" y="123.75" width="23.9" height="0.73" transform="translate(133.18 462.85) rotate(-63.64)"/><rect class="cls-8" x="439.67" y="126.23" width="0.73" height="29.12" transform="translate(228.64 551.6) rotate(-80.51)"/><rect class="cls-7" x="93.37" y="381.04" width="377.78" height="44.59"/><rect class="cls-6" x="110.88" y="391.38" width="72.26" height="24.06"/><rect class="cls-6" x="189.84" y="391.38" width="5.61" height="24.06"/><rect class="cls-6" x="200.06" y="391.38" width="5.61" height="24.06"/><rect class="cls-6" x="434.89" y="391.31" width="14.59" height="24.06"/><rect class="cls-6" x="247.79" y="401.64" width="112.25" height="2.89"/><rect class="cls-3" x="162.12" y="316.87" width="323.36" height="64.17"/><rect class="cls-4" x="199.66" y="316.87" width="17.82" height="64.17"/><rect class="cls-4" x="230.31" y="316.87" width="17.82" height="64.17"/><rect class="cls-4" x="401.35" y="316.87" width="17.82" height="64.17"/><rect class="cls-4" x="432" y="316.87" width="17.82" height="64.17"/><rect class="cls-9" x="273.75" y="332.07" width="115.97" height="1"/><rect class="cls-9" x="306" y="342.77" width="83.71" height="1"/><rect class="cls-5" x="119.91" y="281.73" width="326.92" height="35.14"/><ellipse class="cls-10" cx="400.39" cy="299.3" rx="26.47" ry="9.89"/><rect class="cls-10" x="360.34" y="281.73" width="3.97" height="35.14"/><rect class="cls-10" x="348.94" y="281.73" width="3.97" height="35.14"/><rect class="cls-10" x="336.65" y="281.73" width="3.97" height="35.14"/><rect class="cls-10" x="175.55" y="281.73" width="3.97" height="35.14"/><rect class="cls-10" x="163.26" y="281.73" width="3.97" height="35.14"/><rect class="cls-6" x="142.61" y="232.84" width="340.36" height="48.89"/><rect class="cls-7" x="192.66" y="232.84" width="11.7" height="48.89"/><rect class="cls-7" x="210.91" y="232.84" width="11.7" height="48.89"/><rect class="cls-7" x="406.77" y="232.84" width="11.7" height="48.89"/><rect class="cls-7" x="425.02" y="232.84" width="11.7" height="48.89"/><path class="cls-11" d="M203.81,71.6H410.11A14.93,14.93,0,0,1,425,86.53V216a0,0,0,0,1,0,0H188.88a0,0,0,0,1,0,0V86.53A14.93,14.93,0,0,1,203.81,71.6Z"/><path class="cls-11" d="M458.21,232.84H155.71c-3.35,0-6.07-4.62-6.07-10.33s2.72-10.32,6.07-10.32h302.5c3.35,0,6.06,4.62,6.06,10.32S461.56,232.84,458.21,232.84Z"/><rect class="cls-9" x="200.73" y="84.82" width="212.45" height="121.14"/><rect class="cls-6" x="313.63" y="129.79" width="22.88" height="75.25"/><rect class="cls-3" x="338.13" y="120.57" width="16.32" height="84.47"/><polygon class="cls-5" points="299.51 205.31 281.41 203.65 296.17 120.53 314.27 122.2 299.51 205.31"/><rect class="cls-7" x="356.81" y="115.62" width="22.88" height="89.42"/><rect class="cls-5" x="381.73" y="108.93" width="18.9" height="96.12"/><rect class="cls-7" x="316" y="146.98" width="18.41" height="1.32"/><rect class="cls-7" x="316" y="149.03" width="18.41" height="1.32"/><polygon class="cls-9" points="317.5 140.81 317.05 140.81 317.05 133.34 331.07 133.34 331.07 133.79 317.5 133.79 317.5 140.81"/><polygon class="cls-9" points="333.46 142.83 320.59 142.83 320.59 142.38 333.01 142.38 333.01 134.76 333.46 134.76 333.46 142.83"/><rect class="cls-12" x="338.69" y="128.05" width="15.19" height="2.92"/><polygon class="cls-8" points="310.93 132.34 295.86 130.96 296.91 125.02 311.98 126.4 310.93 132.34"/><polygon class="cls-8" points="308.15 147.96 293.08 146.57 294.14 140.63 309.21 142.02 308.15 147.96"/><rect class="cls-12" x="338.69" y="133.3" width="15.19" height="2.92"/><path class="cls-9" d="M368.27,138.1c-4.24,0-7.7-4-7.7-9s3.46-9,7.7-9,7.69,4,7.69,9S372.51,138.1,368.27,138.1Zm0-17.61c-4,0-7.25,3.85-7.25,8.58s3.25,8.58,7.25,8.58,7.24-3.85,7.24-8.58S372.26,120.49,368.27,120.49Z"/><path class="cls-9" d="M368.27,136.41c-3.46,0-6.27-3.29-6.27-7.34s2.81-7.34,6.27-7.34,6.26,3.29,6.26,7.34S371.72,136.41,368.27,136.41Zm0-14.23c-3.21,0-5.82,3.09-5.82,6.89s2.61,6.89,5.82,6.89,5.81-3.09,5.81-6.89S371.47,122.18,368.27,122.18Z"/><rect class="cls-6" x="358.86" y="141.12" width="19.08" height="2.43"/><rect class="cls-6" x="358.86" y="145.68" width="19.08" height="2.43"/><rect class="cls-10" x="381.73" y="118.16" width="18.9" height="5.06"/><rect class="cls-10" x="381.73" y="125.2" width="18.9" height="5.06"/><rect class="cls-10" x="381.73" y="181.4" width="18.9" height="5.06"/><rect class="cls-10" x="381.73" y="188.44" width="18.9" height="5.06"/><rect class="cls-6" x="211.11" y="120.57" width="16.32" height="84.47"/><rect class="cls-10" x="229.79" y="115.62" width="22.88" height="89.42"/><polygon class="cls-3" points="277.4 204.5 258.6 202.68 269.77 107.1 288.56 108.91 277.4 204.5"/><rect class="cls-10" x="211.68" y="128.05" width="15.19" height="2.92"/><rect class="cls-10" x="211.68" y="133.3" width="15.19" height="2.92"/><rect class="cls-10" x="211.68" y="188.93" width="15.19" height="2.92"/><rect class="cls-10" x="211.68" y="194.18" width="15.19" height="2.92"/><path class="cls-9" d="M241.25,138.1c-4.24,0-7.69-4-7.69-9s3.45-9,7.69-9,7.69,4,7.69,9S245.49,138.1,241.25,138.1Zm0-17.61c-4,0-7.24,3.85-7.24,8.58s3.24,8.58,7.24,8.58,7.24-3.85,7.24-8.58S245.24,120.49,241.25,120.49Z"/><path class="cls-9" d="M241.25,136.41c-3.46,0-6.27-3.29-6.27-7.34s2.81-7.34,6.27-7.34,6.26,3.29,6.26,7.34S244.7,136.41,241.25,136.41Zm0-14.23c-3.21,0-5.82,3.09-5.82,6.89S238,136,241.25,136s5.81-3.09,5.81-6.89S244.45,122.18,241.25,122.18Z"/><rect class="cls-6" x="231.84" y="145.68" width="19.08" height="2.43"/><polygon class="cls-12" points="286.9 123.13 268.11 121.31 268.69 116.29 287.49 118.1 286.9 123.13"/><polygon class="cls-9" points="278.74 193.02 259.94 191.21 260.53 186.18 279.33 187.99 278.74 193.02"/><path class="cls-10" d="M367.49,130.92c.45.4,1.45,1.3,1.17,2.09a1,1,0,0,1-.56.63,1.75,1.75,0,0,1-.88.1,3.88,3.88,0,0,1-2.45-1.43,5.5,5.5,0,0,1-1.14-3.38h0A10.12,10.12,0,0,1,367.49,130.92Z"/><path class="cls-11" d="M367.5,134l-.3,0a4.09,4.09,0,0,1-2.6-1.5,5.76,5.76,0,0,1-1.2-3.54v-.28l.28.08a10.11,10.11,0,0,1,3.95,2h0c.43.37,1.57,1.37,1.24,2.33a1.29,1.29,0,0,1-.69.76A1.64,1.64,0,0,1,367.5,134Zm-3.64-4.74a5.16,5.16,0,0,0,1.09,2.93,3.65,3.65,0,0,0,2.29,1.35,1.73,1.73,0,0,0,.77-.08.77.77,0,0,0,.44-.5c.24-.67-.78-1.56-1.11-1.85h0A9.67,9.67,0,0,0,363.86,129.24Z"/><path class="cls-9" d="M367.5,134l-.3,0a4.09,4.09,0,0,1-2.6-1.5,5.76,5.76,0,0,1-1.2-3.54v-.28l.28.08a10.11,10.11,0,0,1,3.95,2h0c.43.37,1.57,1.37,1.24,2.33a1.29,1.29,0,0,1-.69.76A1.64,1.64,0,0,1,367.5,134Zm-3.64-4.74a5.16,5.16,0,0,0,1.09,2.93,3.65,3.65,0,0,0,2.29,1.35,1.73,1.73,0,0,0,.77-.08.77.77,0,0,0,.44-.5c.24-.67-.78-1.56-1.11-1.85h0A9.67,9.67,0,0,0,363.86,129.24Z"/><rect class="cls-9" x="365.64" y="128.04" width="0.45" height="6.5" transform="translate(10.09 287.87) rotate(-43.5)"/><rect class="cls-9" x="365.17" y="129.39" width="0.45" height="1.8" transform="translate(-22.48 136.55) rotate(-20.55)"/><rect class="cls-9" x="365.25" y="130.7" width="0.45" height="2.34" transform="translate(170.75 468.09) rotate(-79.76)"/><rect class="cls-9" x="366.86" y="130.54" width="0.45" height="2.08" transform="translate(-8.1 25.27) rotate(-3.9)"/><path class="cls-11" d="M369.22,132.08a1.81,1.81,0,0,1-.4,0,1.94,1.94,0,0,1-1.07-.59,3,3,0,0,1-.4-3.3,10.43,10.43,0,0,1,3.61-4.08l.2-.13.12.21a7.22,7.22,0,0,1,.93,4.73h0a3.59,3.59,0,0,1-1.87,3A3,3,0,0,1,369.22,132.08Zm1.79-7.5a9.66,9.66,0,0,0-3.25,3.74,2.6,2.6,0,0,0,.31,2.82,1.53,1.53,0,0,0,.83.46,2.26,2.26,0,0,0,1.27-.18c1.25-.51,1.5-2,1.6-2.61A6.68,6.68,0,0,0,371,124.58Z"/><path class="cls-9" d="M369.22,132.08a1.81,1.81,0,0,1-.4,0,1.94,1.94,0,0,1-1.07-.59,3,3,0,0,1-.4-3.3,10.43,10.43,0,0,1,3.61-4.08l.2-.13.12.21a7.22,7.22,0,0,1,.93,4.73h0a3.59,3.59,0,0,1-1.87,3A3,3,0,0,1,369.22,132.08Zm1.79-7.5a9.66,9.66,0,0,0-3.25,3.74,2.6,2.6,0,0,0,.31,2.82,1.53,1.53,0,0,0,.83.46,2.26,2.26,0,0,0,1.27-.18c1.25-.51,1.5-2,1.6-2.61A6.68,6.68,0,0,0,371,124.58Z"/><rect class="cls-9" x="366.03" y="127.82" width="7.89" height="0.45" transform="translate(142.32 446.55) rotate(-73.53)"/><rect class="cls-9" x="369.57" y="126.56" width="2.65" height="0.45" transform="translate(35.02 328.83) rotate(-49.9)"/><polygon class="cls-9" points="369.44 129.46 367.85 127.45 368.2 127.17 369.79 129.18 369.44 129.46"/><rect class="cls-9" x="369.03" y="128.96" width="3.39" height="0.45" transform="translate(-2.78 250.07) rotate(-37.15)"/><path class="cls-3" d="M214.18,97.31a1.86,1.86,0,1,1-1.86-1.86A1.86,1.86,0,0,1,214.18,97.31Z"/><path class="cls-3" d="M219,97.31a1.86,1.86,0,1,1-1.85-1.86A1.86,1.86,0,0,1,219,97.31Z"/><path class="cls-11" d="M382.27,100.87H205.87V89.82h176.4Zm-175.95-.45h175.5V90.27H206.32Z"/><rect class="cls-6" x="386.86" y="90.04" width="13.84" height="10.6" transform="translate(787.55 190.69) rotate(180)"/><path class="cls-3" d="M223.85,97.31A1.86,1.86,0,1,1,222,95.45,1.86,1.86,0,0,1,223.85,97.31Z"/><rect class="cls-3" x="188.88" y="211.69" width="236.17" height="1"/><path class="cls-11" d="M389.05,426.86a101.57,101.57,0,0,1,13.26-78.61c13.62-21,33.8-34.87,56.85-39.17a82.47,82.47,0,0,1,36,1.34,91.62,91.62,0,0,1,32.34,15.76A101.15,101.15,0,0,1,567,397.43l-5.05.48a96.1,96.1,0,0,0-37.46-67.68,86.73,86.73,0,0,0-30.56-14.9,77.46,77.46,0,0,0-33.8-1.26c-21.67,4-40.67,17.16-53.52,36.94A96.46,96.46,0,0,0,394,425.68Z"/><path class="cls-11" d="M529,336.33a6.74,6.74,0,0,1-5.45-1.49C519,331,494.88,312.59,462.36,318l-1.5.26c-29.52,5.51-45.47,27-49.65,33.45a6.77,6.77,0,1,1-11.36-7.36c4.92-7.6,23.7-32.9,58.53-39.4a87.47,87.47,0,0,1,50.6,5.69,93.65,93.65,0,0,1,23.2,13.84A6.78,6.78,0,0,1,529,336.33Z"/><path class="cls-11" d="M388.62,438.67h0a4.63,4.63,0,0,1-5.33-3.81L381,420.79a4.64,4.64,0,0,1,3.82-5.33h0a4.64,4.64,0,0,1,5.33,3.82l2.33,14.06A4.63,4.63,0,0,1,388.62,438.67Z"/><path class="cls-5" d="M411.88,388.93c-15.81,2.61-26.17,19.54-23.15,37.8s18.28,30.95,34.09,28.34Z"/><path class="cls-11" d="M430.64,459.43h0a7,7,0,0,1-8.06-5.77l-10.47-63.32a7,7,0,0,1,5.77-8.06h0a7,7,0,0,1,8.06,5.77l10.47,63.32A7,7,0,0,1,430.64,459.43Z"/><path class="cls-11" d="M571.18,408.48h0a4.65,4.65,0,0,0,3.82-5.33l-2.33-14.07a4.64,4.64,0,0,0-5.33-3.82h0a4.64,4.64,0,0,0-3.82,5.33l2.33,14.07A4.65,4.65,0,0,0,571.18,408.48Z"/><path class="cls-5" d="M533.14,368.87c15.92-2.64,31.27,10,34.29,28.3S560,432.38,544.08,435Z"/><path class="cls-11" d="M538.08,441.65h0a7,7,0,0,0,5.77-8l-10.48-63.32a7,7,0,0,0-8-5.77h0a7,7,0,0,0-5.77,8.06L530,435.89A7,7,0,0,0,538.08,441.65Z"/><path class="cls-5" d="M222.81,139.57a10.9,10.9,0,0,1,3.47,5.1c1.34,3.37.4,4.29,1.51,7.89.6,1.93,1.51,4.89,4,7s4.09,1.08,7.4,3.62c1.41,1.08,3,2.29,3.53,4.4a9.12,9.12,0,0,1-1,6.19c-.69,1.36-1,1.22-1.52,2.51-.87,2.14-.24,3.19-.94,4.78a6.54,6.54,0,0,1-3.09,2.92c-3,1.72-10.08,2.57-17.29-.66-12.53-5.61-19.67-20.86-16.36-25.07,1.34-1.7,3.71-.67,5.47-3,2.19-2.87-.48-5.75,1.18-10.56.25-.72,2-5.8,6.5-6.86C219.28,137,222.35,139.22,222.81,139.57Z"/><path class="cls-10" d="M153.93,170a20.75,20.75,0,0,1-1.39,3.34,1.26,1.26,0,0,1-.87,0,14.45,14.45,0,0,1,.38-2Z"/><path class="cls-10" d="M171.57,165.3s-10.1-.84-10.77-.78-3.94,2-4.83,2.5-4.88,4.16-5,4.94-.05,1,.5.83,4.45-4.2,5.11-4.1,1.83.21,1.56.88-1.95.78-2.06,1.39-.05,1.11.34,1.11a6,6,0,0,0,2.49-1.11,29.9,29.9,0,0,1,2.34-2.94c.16-.06,10.32,1.66,10.32,1.66Z"/><rect class="cls-11" x="151.46" y="171.66" width="2.43" height="0.25" transform="translate(-75.51 144.37) rotate(-41.52)"/><path class="cls-10" d="M231.48,203.62s3.59,7.72,4.24,8,2.88.89,3.53.65,1-.59,1.71-.53,5,.88,5.71.83,1.06-.18,1.06-.48a.65.65,0,0,0-.77-.53,41.76,41.76,0,0,1-5.3-1.17c-.35-.18-3.82-1.42-3.82-1.42l-2.36-6.71Z"/><path class="cls-11" d="M243.35,212.31h-.07l.06-.35a.6.6,0,0,0,0-.52,23.23,23.23,0,0,0-4.08-.88,4.92,4.92,0,0,0-1.76.41l-.14-.34a5.27,5.27,0,0,1,1.92-.43c.42,0,4.13.65,4.37,1.06a1,1,0,0,1,0,.9A.37.37,0,0,1,243.35,212.31Z"/><path class="cls-10" d="M207.43,209.24l-3-.43s-1.46,2.29-1.25,3.47a2.4,2.4,0,0,0,1.25,1.66l1.9.09A8.44,8.44,0,0,1,207.43,209.24Z"/><path class="cls-10" d="M171,199.76v6.11s-8.38,4.71-8.9,4.59-1.81-.46-1.92,0a2.46,2.46,0,0,0,1.22,2c.58.12,8.14-.87,9.13-.7s3.84.82,4.43.41,1.63-1.22,1.22-2a29.76,29.76,0,0,1-1.11-3.46l1.11-6.13-.56-1.5a3.5,3.5,0,0,0-3.26-.64Z"/><path class="cls-3" d="M208.52,194.14l-7.6-.91s-19.61-19.67-21.48-20.82-5.18-2-6.62.68-2.08,27.21-2.08,27.21,2.51-1.85,5.53.67l3.17-14.07,11.61,16.39Z"/><path class="cls-3" d="M210.79,193.54c-.21,0-31.58,8.61-33.38,10.41s-1.46,5.62,0,6.8,27,3.19,27,3.19-2-3.81,1.88-5.13c.74.25,6.91,2.21,11-.81a7.75,7.75,0,0,0,2.43-2.79,8,8,0,0,0,.63-5.08c-.16-.89-.89-5.25-4.59-6.59C214.26,193,210.79,193.54,210.79,193.54Z"/><path class="cls-11" d="M188,200.26l-.1-.34c6-1.86,13-3.83,16.55-4.84l.1.35C201,196.44,194,198.4,188,200.26Z"/><path class="cls-10" d="M224.18,212.49c-1-.56-7.42-2.85-8-3.2s-2.5-2.7-3.33-2.63-2.08.34-2.36,1.45a7.46,7.46,0,0,0-.28,1.53l-2.8-.4A8.44,8.44,0,0,0,206.3,214c1.88.09,4.5.22,4.77.26s10.2-.49,10.75-.35,2.36,1.11,2.78,1S225.15,213,224.18,212.49Z"/><path class="cls-11" d="M206.22,209c-.14,0-13.83-4.72-17-5.18a59.35,59.35,0,0,0-8.23-.29v-.37a59.19,59.19,0,0,1,8.29.3c3.17.47,16.47,5,17,5.2Z"/><path class="cls-7" d="M219.37,163.29l7.22,5.16s1.87-1.41,3.28,0,2.22,4.33,1.87,5.27.82,2.58,1.06,4.33-1.41,4.46-1.53,4.93.71,8.78.71,8.78l4.1,11.13-4.92,1.64s-6.68-12.46-7-13.31-1.18-5-2-4.85-1.31,3.54-1.64,5.74a50.9,50.9,0,0,0-.53,6.38,20.67,20.67,0,0,1-9.28.27,21.38,21.38,0,0,1-12-7.25c.11-.58.22-1.16.32-1.74a57.86,57.86,0,0,1-2.81-5.86c-.7-2,.47-8.55.47-8.55s-1.52.7-2.69,1.29-5.16-1.64-6.92-2-5.5-2.81-5.5-2.81l-11.37-1.65c.16-1.87.31-3.74.47-5.62l11.6.12s6.68-3,8-3.28c1.53-.28,2.56.51,4.33,0,2.18-.63,2.79-1.93,4.39-1.9.83,0,2,.39,3.34,2l8.71-.43Z"/><path class="cls-10" d="M219.37,153.53l-.38,11s-1.79,1.71-5.68,0S211,161.1,211,161.1l2.37-8.52Z"/><path class="cls-11" d="M213.41,152.58l-.58,2.08a12.58,12.58,0,0,0,6.34,4.82l.2-5.95Z"/><path class="cls-11" d="M207.23,146.1l-.1,0a.49.49,0,0,1-.25-.58l.39-1.5a.41.41,0,0,1,.48-.36l.1,0a.46.46,0,0,1,.24.58l-.38,1.5C207.64,146,207.43,146.16,207.23,146.1Z"/><path class="cls-11" d="M211.17,142.24c-1.45-.44-3,.76-3.5,2.68s.3,3.83,1.74,4.27Z"/><path class="cls-11" d="M209.92,150l-.15,0a.71.71,0,0,1-.37-.88l1.7-6.68a.64.64,0,0,1,.73-.54l.15,0a.7.7,0,0,1,.37.87l-1.7,6.69A.62.62,0,0,1,209.92,150Z"/><circle class="cls-10" cx="216.95" cy="148.19" r="6.69"/><path class="cls-10" d="M220.7,148.86a2.19,2.19,0,1,0,2.79-1.34A2.19,2.19,0,0,0,220.7,148.86Z"/><rect class="cls-11" x="222.23" y="149.22" width="1.7" height="0.36"/><rect class="cls-11" x="222.26" y="149.71" width="1.15" height="0.36" transform="translate(-28.92 243.41) rotate(-54.31)"/><path class="cls-11" d="M216.1,147.71a.43.43,0,0,0,.17.57c.18.07.4-.09.49-.34a.43.43,0,0,0-.17-.57C216.41,147.31,216.19,147.46,216.1,147.71Z"/><path class="cls-11" d="M213,146.77a.43.43,0,0,0,.17.57c.18.06.4-.09.49-.34a.43.43,0,0,0-.17-.57C213.28,146.36,213.07,146.52,213,146.77Z"/><rect class="cls-11" x="217.08" y="145.63" width="0.36" height="1.82" transform="translate(-30.39 232.26) rotate(-53.09)"/><rect class="cls-11" x="212.73" y="145.26" width="1.68" height="0.36" transform="translate(-28.51 55.09) rotate(-13.79)"/><path class="cls-11" d="M214.48,151.29a1.33,1.33,0,0,0,1.41-.37.19.19,0,0,1,.26,0,.19.19,0,0,1,0,.26,1.69,1.69,0,0,1-1.83.5A.18.18,0,0,1,214.48,151.29Z"/><path class="cls-11" d="M213.67,148.61l.24-.21.49-.41a.2.2,0,0,0,0-.26.19.19,0,0,0-.25,0l-.59.5c-.19.16-.43.33-.35.61a1.05,1.05,0,0,0,.44.47,1.27,1.27,0,0,0,.63.27.19.19,0,0,0,.21-.15.19.19,0,0,0-.15-.21A.85.85,0,0,1,214,149l-.22-.16a.45.45,0,0,1-.13-.15s0,0,0,0S213.64,148.63,213.67,148.61Z"/><path class="cls-11" d="M200.18,170.19l-.29-.21c2.4-3.17,2.26-8.39,2.26-8.44h.37C202.52,161.75,202.65,166.92,200.18,170.19Z"/><path class="cls-11" d="M223.32,175.28l-.34-.11a24.31,24.31,0,0,1,3.46-6.83l.29.22A24.46,24.46,0,0,0,223.32,175.28Z"/><path class="cls-11" d="M215.59,167.16a7.26,7.26,0,0,1-2.11-.34,5.23,5.23,0,0,1-3.47-2.6,4.7,4.7,0,0,1-.23-3.11l.35.09a4.35,4.35,0,0,0,.21,2.87,4.9,4.9,0,0,0,3.24,2.4,5.61,5.61,0,0,0,6.79-2.45l.31.19a6,6,0,0,1-2.55,2.36A5.74,5.74,0,0,1,215.59,167.16Z"/><path class="cls-11" d="M208.06,163.27a.7.7,0,1,1,.69-.7A.7.7,0,0,1,208.06,163.27Zm0-1a.34.34,0,1,0,.33.33A.34.34,0,0,0,208.06,162.24Z"/><path class="cls-11" d="M208.57,165.47a.7.7,0,1,1,.7-.69A.7.7,0,0,1,208.57,165.47Zm0-1a.34.34,0,1,0,.34.34A.34.34,0,0,0,208.57,164.44Z"/><path class="cls-11" d="M211.59,168.78a.7.7,0,1,1,.7-.7A.7.7,0,0,1,211.59,168.78Zm0-1a.34.34,0,1,0,.34.34A.34.34,0,0,0,211.59,167.74Z"/><path class="cls-11" d="M209.8,167.53a.7.7,0,1,1,.7-.7A.7.7,0,0,1,209.8,167.53Zm0-1a.34.34,0,1,0,.33.33A.34.34,0,0,0,209.8,166.5Z"/><path class="cls-11" d="M214.13,169.43a.7.7,0,0,1,0-1.4.7.7,0,0,1,0,1.4Zm0-1a.34.34,0,1,0,.33.33A.34.34,0,0,0,214.13,168.4Z"/><path class="cls-11" d="M217,169.3a.7.7,0,0,1,0-1.4.7.7,0,0,1,0,1.4Zm0-1a.34.34,0,1,0,.34.34A.34.34,0,0,0,217,168.26Z"/><path class="cls-11" d="M219.37,168.05a.7.7,0,0,1,0-1.4.7.7,0,1,1,0,1.4Zm0-1a.34.34,0,0,0,0,.67.34.34,0,1,0,0-.67Z"/><path class="cls-11" d="M221,166.51a.7.7,0,1,1,.7-.7A.7.7,0,0,1,221,166.51Zm0-1a.34.34,0,1,0,.34.34A.34.34,0,0,0,221,165.47Z"/><path class="cls-11" d="M205,170a.18.18,0,0,0,0-.08l0,0-.09,0h-.06a.1.1,0,0,0-.07,0,.09.09,0,0,0-.05,0l0,.06a.09.09,0,0,0,0,.07v.05a.22.22,0,0,0,0,.08l0,0,.09,0h.13a.1.1,0,0,0,.05,0l0-.06a.14.14,0,0,0,0-.07Z"/><path class="cls-11" d="M210.32,173.15a.18.18,0,0,0,0,.36A.18.18,0,0,0,210.32,173.15Z"/><path class="cls-11" d="M217.33,173a.19.19,0,0,0,0,.37A.19.19,0,0,0,217.33,173Z"/><path class="cls-11" d="M204.51,177.94a.18.18,0,0,0,0,.36A.18.18,0,0,0,204.51,177.94Z"/><path class="cls-11" d="M216.12,181.4a.14.14,0,0,0-.05-.08l0,0a.15.15,0,0,0-.09,0h-.14a.1.1,0,0,0-.05,0l0,.06a.14.14,0,0,0,0,.07v.05a.18.18,0,0,0,0,.08l0,0a.16.16,0,0,0,.09,0H216l.07,0a.09.09,0,0,0,0,0s0,0,0-.06a.19.19,0,0,0,0-.07Z"/><path class="cls-11" d="M209.65,183.22a.22.22,0,0,0-.05-.08l0,0-.09,0h-.13l-.06,0a.21.21,0,0,0,0,.06.17.17,0,0,0,0,.07v0a.12.12,0,0,0,0,.08l0,0,.09,0h.13a.09.09,0,0,0,.06,0,.21.21,0,0,0,0-.06.08.08,0,0,0,0-.07Z"/><path class="cls-11" d="M200.3,182.52a.19.19,0,0,0,0,.37A.19.19,0,0,0,200.3,182.52Z"/><path class="cls-11" d="M204.67,189s0,0,0-.06l-.06,0-.07,0h0l-.08,0,0,0a.29.29,0,0,0,0,.09v.07a.2.2,0,0,0,0,.07.1.1,0,0,0,0,.05l.06,0,.07,0h.05a.18.18,0,0,0,.08,0l0,0a.16.16,0,0,0,0-.09v-.07A.1.1,0,0,0,204.67,189Z"/><path class="cls-11" d="M216.18,189.76a.12.12,0,0,0,0-.08l0,0a.15.15,0,0,0-.09,0H216a.08.08,0,0,0-.07,0,.18.18,0,0,0-.1.1.08.08,0,0,0,0,.07v0a.16.16,0,0,0,0,.08l0,0a.12.12,0,0,0,.09,0H216l.07,0s0,0,.06,0a.1.1,0,0,0,0-.05.2.2,0,0,0,0-.07Z"/><path class="cls-11" d="M210.84,194.16a.2.2,0,0,0,0-.08l-.07-.06a.07.07,0,0,0-.06,0l-.07,0-.07,0a.07.07,0,0,0-.05,0l0,0a.16.16,0,0,0,0,.09v.05a.14.14,0,0,0,0,.08l.06.06.06,0,.07,0,.07,0,.06,0,0,0a.16.16,0,0,0,0-.09Z"/><path class="cls-11" d="M220.28,183.65a.19.19,0,0,0,0,.37A.19.19,0,0,0,220.28,183.65Z"/><path class="cls-11" d="M223.28,170.19l0-.06-.06,0a.08.08,0,0,0-.07,0h-.05s-.05,0-.08,0l0,0a.29.29,0,0,0,0,.09v.06a.08.08,0,0,0,0,.07.09.09,0,0,0,0,.06l.06,0,.07,0h0l.08-.05,0,0a.3.3,0,0,0,0-.1v-.06A.17.17,0,0,0,223.28,170.19Z"/><path class="cls-11" d="M204.62,164.37a.14.14,0,0,0-.05-.08l0,0-.09,0h-.07l-.07,0-.06,0a.09.09,0,0,0,0,.06.14.14,0,0,0,0,.07v0a.2.2,0,0,0,0,.08l0,0a.16.16,0,0,0,.09,0h.07l.07,0a.29.29,0,0,0,.09-.09.25.25,0,0,0,0-.07Z"/><rect class="cls-11" x="230.52" y="198.67" width="0.36" height="4.92" transform="translate(-68.17 135.14) rotate(-28.63)"/><rect class="cls-11" x="231.99" y="198.13" width="0.36" height="4.81" transform="translate(-60.07 107.2) rotate(-23.11)"/><rect class="cls-11" x="233.61" y="197.81" width="0.36" height="4.57" transform="translate(-48.87 78.44) rotate(-17.27)"/><rect class="cls-11" x="175.19" y="161.45" width="0.36" height="8.18" transform="translate(-1.35 329.64) rotate(-86.23)"/><rect class="cls-11" x="174.77" y="163.63" width="0.36" height="7.44" transform="translate(0.04 334.75) rotate(-87.47)"/><rect class="cls-11" x="174.43" y="166.16" width="0.36" height="6.83" transform="translate(-19.32 316.65) rotate(-81.34)"/><path class="cls-5" d="M215,141.11a9.1,9.1,0,0,1,4.77-.23,5.79,5.79,0,0,1,3.18,1.86,3,3,0,0,1,.56.9c-.18,0-.38,0-.56.08s-.4.12-.6.18c-.44.14-.89.25-1.34.35a20.07,20.07,0,0,1-2.77.39,35.14,35.14,0,0,1-5.62-.08c-1.15-.1-1.49.06-1.59-.15C210.72,143.82,212.7,141.94,215,141.11Z"/><path class="cls-5" d="M221.17,146.49c.71,1.36,2.39,2,3.11,3.34a5.77,5.77,0,0,1,.19,3.66,1.51,1.51,0,0,0,0,.87.54.54,0,0,0,.71.32.81.81,0,0,0,.27-.42,11.37,11.37,0,0,0-1.81-10.78,3,3,0,0,0-1.09-.93c-.52-.22-1.3-.13-1.46.49a6.74,6.74,0,0,0-.29,2.19A3.09,3.09,0,0,0,221.17,146.49Z"/><path class="cls-11" d="M223.32,148.92a9,9,0,0,0-1.5-1.58,3,3,0,0,1-1-1.26c-.34-1,.06-2.24,1.2-3.74l.29.22c-1.06,1.39-1.45,2.54-1.14,3.4a2.61,2.61,0,0,0,.91,1.11,9.56,9.56,0,0,1,1.56,1.63Z"/><path class="cls-11" d="M222,142.29c-2.87,1.39-6.16,1.4-9.27,1.06a.18.18,0,0,0-.05.36c3.17.35,6.52.33,9.45-1.09C222.29,142.52,222.16,142.18,222,142.29Z"/><path class="cls-11" d="M207.47,145a10.38,10.38,0,0,1,4.49-7,8.39,8.39,0,0,1,7-1.05,8.84,8.84,0,0,1,3.33,1.87,10.65,10.65,0,0,1,2.4,3.09,11.6,11.6,0,0,1,.78,8.81l-.5-.19a11,11,0,0,0-.74-8.38,10.07,10.07,0,0,0-2.26-2.92,8.47,8.47,0,0,0-3.13-1.75,7.86,7.86,0,0,0-6.57,1A9.77,9.77,0,0,0,208,145.1Z"/><path class="cls-11" d="M224.39,143a.77.77,0,0,1-.46-.41,8.83,8.83,0,0,0-5.21-4.63,7.46,7.46,0,0,0-6.06.85.69.69,0,0,1-1-.26.75.75,0,0,1,.19-1,8.82,8.82,0,0,1,7.14-1,9.53,9.53,0,0,1,4.54,3,11,11,0,0,1,1.61,2.47.72.72,0,0,1-.31,1A.62.62,0,0,1,224.39,143Z"/><path class="cls-11" d="M225.41,152l.1,0c.19.07.39-.09.46-.35l.37-1.5a.48.48,0,0,0-.23-.58l-.09,0c-.19-.06-.4.1-.46.36l-.38,1.49A.48.48,0,0,0,225.41,152Z"/><path class="cls-11" d="M224,146.47c1.37.44,2.1,2.35,1.62,4.27s-2,3.11-3.33,2.67Z"/><path class="cls-11" d="M221.48,153.77l.14,0c.29.09.6-.15.69-.54L224,146.6a.7.7,0,0,0-.35-.87l-.13,0c-.29-.09-.6.15-.7.54l-1.66,6.68A.71.71,0,0,0,221.48,153.77Z"/><path class="cls-11" d="M258.18,207.53a5.89,5.89,0,0,1-1-.09c-2.48-.48-4-3.06-4.2-5.25-.28-3.29,2.49-5.55,3.7-6.38a11.33,11.33,0,0,1,8-1.59,14.52,14.52,0,0,0-8.1-8.9c-.87-.36-1.81-.64-2.71-.91a13.41,13.41,0,0,1-5.48-2.59,9.47,9.47,0,0,1-2.65-7.11,22.62,22.62,0,0,1,.26-3.19,15.24,15.24,0,0,1-5.9-1.8,13.69,13.69,0,0,1-5.78-5.19,13.27,13.27,0,0,1-7.17-3.09c-3.9-3.39-4.16-8.47-4.14-9.94h.36c0,1.44.23,6.38,4,9.67a13.2,13.2,0,0,0,6.75,3,6.43,6.43,0,0,1-.59-2.59,7.21,7.21,0,0,1,2-5,3.64,3.64,0,0,1,2.45-1.31h0c1.59,0,2.92,1.56,3.29,3.05a5.23,5.23,0,0,1-1.92,5,6.63,6.63,0,0,1-4.66,1.29,13.74,13.74,0,0,0,5.53,4.83,14.78,14.78,0,0,0,5.78,1.75,17.52,17.52,0,0,1,.76-3c.79-2.2,1.88-3.47,3.15-3.68a3.2,3.2,0,0,1,3.26,1.64,3,3,0,0,1-.23,2.2,5.55,5.55,0,0,1-1.83,2.21,7.89,7.89,0,0,1-4.81,1,22.2,22.2,0,0,0-.26,3.16,9.11,9.11,0,0,0,2.53,6.84,13.14,13.14,0,0,0,5.35,2.51c.91.28,1.85.56,2.73.92a15,15,0,0,1,8.37,9.3,13.73,13.73,0,0,1,2.75.76,47.36,47.36,0,0,1,4.53,2.2,33.81,33.81,0,0,0,5.9,2.69,17.64,17.64,0,0,0,17.27-4.25c2.16-2.16,4.44-5.7,7.42-10.47l0-.06c.79-1.26,2.43-3.88,5.45-4.76a7.36,7.36,0,0,1,2.4-.3v.37a6.74,6.74,0,0,0-2.29.28c-2.89.84-4.48,3.38-5.24,4.61l0,.05c-3,4.79-5.28,8.35-7.48,10.54a18,18,0,0,1-17.63,4.33,34.13,34.13,0,0,1-6-2.71,44.46,44.46,0,0,0-4.5-2.18,13.46,13.46,0,0,0-2.5-.71,13.51,13.51,0,0,1,.51,3.28,10.47,10.47,0,0,1-2,6.83A7.11,7.11,0,0,1,258.18,207.53Zm4.5-13.08a10.28,10.28,0,0,0-5.83,1.66c-1.15.79-3.81,2.95-3.54,6,.17,2.06,1.6,4.49,3.91,4.93a6.52,6.52,0,0,0,6.11-2.52,10.23,10.23,0,0,0,1.94-6.6,13.63,13.63,0,0,0-.54-3.36A13.74,13.74,0,0,0,262.68,194.45Zm-16.33-23.28a7.54,7.54,0,0,0,4.54-.91,5.24,5.24,0,0,0,1.71-2,2.7,2.7,0,0,0,.22-1.93,2.83,2.83,0,0,0-2.86-1.41C248.18,165.16,246.91,167.93,246.35,171.17Zm-11.86-7a6.33,6.33,0,0,0,4.62-1.2,4.84,4.84,0,0,0,1.8-4.6c-.34-1.33-1.55-2.77-2.94-2.78h0a3.27,3.27,0,0,0-2.19,1.21,6.8,6.8,0,0,0-1.94,4.74A6,6,0,0,0,234.49,164.2Z"/><path class="cls-11" d="M179.62,186.93l-.36-.06c0-.06,1.08-6.23-.73-8.46l.28-.23C180.73,180.54,179.67,186.67,179.62,186.93Z"/><rect class="cls-11" x="309.95" y="179.28" width="3.68" height="1.85"/><rect class="cls-11" x="312.15" y="178.61" width="1.48" height="3.2"/><path class="cls-10" d="M185.28,367.14l6.08,7s9.28,4.14,9.52,4.87a2.07,2.07,0,0,1,.16,1.07l-15.77-.26s.15-3.95.75-4.62l-4.76-5Z"/><path class="cls-5" d="M195,375.83c2.76,1.15,6.13,2.63,6.27,3.07a2.28,2.28,0,0,1-.2,1.56l-15.77-.26a23.17,23.17,0,0,1,.52-4.23A13.48,13.48,0,0,0,195,375.83Z"/><path class="cls-11" d="M131.55,370s-1.79,4.75,1.32,8.33c2.27,2.6,9,2.64,12.31,1.1s21-23.2,21-23.2A26.1,26.1,0,0,0,171,362c2.76,2.35,11.18,11,11.18,11l5.85-3.9s-16-23.28-21.15-23.56S131.55,370,131.55,370Z"/><path class="cls-11" d="M145.26,379.6l-.15-.34c1.32-.61,5.29-4.72,11.48-11.87l.28.24C150.56,374.93,146.65,379,145.26,379.6Z"/><polygon class="cls-11" points="201.03 380.46 201.02 381.48 185.05 381.22 185.26 380.2 201.03 380.46"/><path class="cls-10" d="M181.24,389.43l2.17,9s6.34,7.94,6.22,8.7a2.23,2.23,0,0,1-.35,1l-13.89-7.48s2-3.44,2.79-3.76l-2-6.6Z"/><path class="cls-5" d="M185.85,401.59c1.92,2.29,4.23,5.15,4.16,5.61a2.31,2.31,0,0,1-.9,1.3L175.22,401a24.49,24.49,0,0,1,2.4-3.53A13.47,13.47,0,0,0,185.85,401.59Z"/><path class="cls-11" d="M132.2,367.29a22.84,22.84,0,0,0-2.66,8c-.39,2.92-.83,4.7.05,6.05,1.14,1.75,4.17,2.57,11,1.44,6-1,15.92-3.62,28.69-11.8a25.37,25.37,0,0,0,.67,7.38c.73,3,1.73,4.58,4.66,11.91.42,1.07.77,2,1,2.55l6.85-1.71a117.07,117.07,0,0,0-2.62-14.77c-2-8.08-2.31-13-5-14.57C170.34,359.13,132.2,367.29,132.2,367.29Z"/><path class="cls-9" d="M178,369.05c-.9-4-1.65-6.15-3.29-7.11-4.38-2.58-42.12,5.45-42.5,5.54l-.08-.37c1.56-.33,38.26-8.14,42.77-5.49,1.75,1,2.54,3.28,3.46,7.35Z"/><polygon class="cls-11" points="189.11 408.5 188.63 409.4 174.57 401.83 175.22 401.02 189.11 408.5"/><path class="cls-11" d="M141,320.08a7.1,7.1,0,0,0,.37-3.76,8.58,8.58,0,0,0-2.09-4.49,8.91,8.91,0,0,0-5.29-3c-4-.56-6.63,2.53-8.09,1.32-.9-.75,0-2-1.13-3.92a5.52,5.52,0,0,0-3.5-2.57c-1.84-.25-2.08,1.17-5.69,2.12-1.57.41-2.49.39-2.84,1.11s.3,1.91.76,2.62a7.92,7.92,0,0,0,4.7,3.62c3.2.69,6-1.45,6.3-.94.19.33-1.1.89-1.72,2.31-1.06,2.44.66,5.56,2,7.11a13.61,13.61,0,0,0,2.9,2.36c1.83,1.28,2.55,1.4,2.86,1.44.88.12,1.28-.14,3.07-.68,3.28-1,3.33-.53,4.49-1.21A7,7,0,0,0,141,320.08Z"/><path class="cls-10" d="M154.86,340.19l3.66-7.27s5-1.17,5.14-2.39-.88-4.54-2.21-4.26-2.35.4-2.35.4,1.12-3.35.67-3.69-1.06-.32-1.13.36-.52,2.62-1.11,3.05a4.4,4.4,0,0,0-1.09,2.16c-.12.47-.75,2.8-.75,2.8l-4.44,6.45Z"/><polygon class="cls-10" points="128.28 323.59 126.33 337.22 135.95 335.2 134.07 324.14 128.28 323.59"/><path class="cls-11" d="M128.28,323.59l5.79.55.83,4.89a14.57,14.57,0,0,1-6.78-4.36Z"/><path class="cls-10" d="M125.8,318.55a7,7,0,1,0,7.59-6.29A7,7,0,0,0,125.8,318.55Z"/><path class="cls-10" d="M129.14,317.42a2.28,2.28,0,0,1-4.4-1.18,2.28,2.28,0,0,1,4.4,1.18Z"/><rect class="cls-11" x="126.59" y="315.6" width="0.37" height="1.78" transform="matrix(0.56, -0.83, 0.83, 0.56, -206.14, 242.99)"/><rect class="cls-11" x="126.52" y="316.46" width="0.37" height="1.2" transform="translate(-7.97 3.3) rotate(-1.45)"/><path class="cls-11" d="M133.78,319.13c-.07.27-.29.45-.48.39s-.3-.31-.23-.58.29-.44.49-.39A.46.46,0,0,1,133.78,319.13Z"/><path class="cls-11" d="M137,320.15c-.07.27-.29.45-.48.39s-.3-.31-.22-.58.28-.44.48-.39A.46.46,0,0,1,137,320.15Z"/><rect class="cls-11" x="132.52" y="317.26" width="1.89" height="0.37" transform="translate(-14.07 6.29) rotate(-2.56)"/><rect class="cls-11" x="137.1" y="317.79" width="0.37" height="1.75" transform="translate(-177.78 173.32) rotate(-41.93)"/><path class="cls-11" d="M133.07,323.16a1.41,1.41,0,0,1-1-1.15.19.19,0,0,0-.19-.18.18.18,0,0,0-.18.19,1.77,1.77,0,0,0,1.27,1.51A.19.19,0,0,0,133.07,323.16Z"/><path class="cls-11" d="M135.7,320.94s0,0,0,0Z"/><path class="cls-11" d="M134.76,321.7a1.38,1.38,0,0,0,.66.17.7.7,0,0,0,.59-.29.83.83,0,0,0,.11-.6.85.85,0,0,0-.38-.51,1.08,1.08,0,0,0-.66-.15c-.1,0-.16.12-.15.21a.21.21,0,0,0,.22.16h.22l.12.05s0,0,0,0l0,0,.05,0,0,0h0l0,0s0,0,0,0v0h0a.14.14,0,0,1,0,.06l0,0v0a.13.13,0,0,0,0,.06v0h0a.09.09,0,0,1,0,.05v.07a.14.14,0,0,1,0,.06h0l0,0v0s0,0,0,0l0,0h0l0,0,0,0h0a.2.2,0,0,1-.11,0h-.19l-.11,0-.23-.1a.2.2,0,0,0-.24.11A.2.2,0,0,0,134.76,321.7Z"/><path class="cls-10" d="M122.54,370s-4.48,11.06-5,11.22-12.64-.72-12.7-1-.19-.72.3-.88,10.1-1.4,10.35-1.56,2.12-9.51,2.12-9.51Z"/><path class="cls-11" d="M113.84,381.25c-1-.16-4.28-.7-4.54-.83a1,1,0,0,1-.5-.82.66.66,0,0,1,.43-.57c.65-.29,4.58.1,5,.14l0,.37a23.84,23.84,0,0,0-4.84-.17c-.18.08-.21.18-.21.24a.69.69,0,0,0,.3.48c.22.09,2.83.54,4.42.79Z"/><path class="cls-5" d="M126.91,333.15a42.38,42.38,0,0,0-4,20.28c.27,4,1.22,7.83,3.13,15.41,1.32,5.24,2.6,9.54,3.52,12.51,1,.19,6.42,1,10.41-2.43a12.88,12.88,0,0,0,3.66-6.46,21,21,0,0,0,.24-11.14,5.37,5.37,0,0,1-2-2c-1-1.76-.4-3.47.63-8.88a31.63,31.63,0,0,0,.81-5.24,11.33,11.33,0,0,0-2.28-7.14c-.19-.23-.17-.18-2-1.88-1.49-1.39-2.7-2.53-3.5-3.3a2,2,0,0,1-.12,1.82C134.06,336.52,127.61,333.48,126.91,333.15Z"/><path class="cls-5" d="M139.35,337.16l7.06,6.16q1.49-2,3-4.15,2.6-3.69,4.91-7.27l4.69,1.94c-1.35,3.36-2.64,6.07-3.62,8s-.94,1.67-2.34,4.38c-2.66,5.15-2.51,5.8-3.51,6.14-2.28.78-8.35-1.16-8.35-1.16Z"/><path class="cls-5" d="M126.61,359.67s10-16.31,9.9-19.11c0-.44-1.81-4.1-4.68-4.41a5.57,5.57,0,0,0-4,1.63c-5.75,4.8-8.21,15.87-9.68,22.83-.88,4.16-2,9.64-3,16.15l4.74,1.05Q123.24,368.75,126.61,359.67Z"/><path class="cls-11" d="M125.2,364l-.34-.13,1.58-4.25a111.46,111.46,0,0,1,5.68-10.9l.31-.52c1.32-2.21,2.28-3.8,2-5.88a7.86,7.86,0,0,0-3.43-5.07l.22-.3a8.22,8.22,0,0,1,3.57,5.33c.3,2.2-.74,3.93-2.05,6.11l-.31.52a109.44,109.44,0,0,0-5.66,10.85Z"/><path class="cls-11" d="M142.49,351.63l-.34-.14a15.8,15.8,0,0,0,.72-9.07l.35-.1A16.07,16.07,0,0,1,142.49,351.63Z"/><path class="cls-11" d="M142.21,362.45a.19.19,0,0,1,.19.18v.94a.19.19,0,0,1-.18.19.2.2,0,0,1-.19-.18v-.94A.19.19,0,0,1,142.21,362.45Z"/><path class="cls-11" d="M138.06,365.44a.19.19,0,0,1,.22-.13l.95.23a.19.19,0,0,1,.14.22.19.19,0,0,1-.23.13l-.95-.22A.19.19,0,0,1,138.06,365.44Z"/><path class="cls-11" d="M138.49,359.63l.54-.8a.19.19,0,0,1,.25-.07.18.18,0,0,1,.07.25l-.53.8a.2.2,0,0,1-.26.07A.2.2,0,0,1,138.49,359.63Z"/><path class="cls-11" d="M132.88,360.86A1.59,1.59,0,0,1,134,361a.19.19,0,0,1,.07.25.19.19,0,0,1-.25.07l-.06,0h0l-.11,0-.11,0h-.41l-.1,0a.19.19,0,1,1-.1-.36Z"/><path class="cls-11" d="M133,366.17l.68-1.07a.18.18,0,0,1,.32.18l-.68,1.07a.19.19,0,0,1-.25.07A.19.19,0,0,1,133,366.17Z"/><path class="cls-11" d="M134.9,369.82a.18.18,0,0,1,.22-.13l.94.26a.19.19,0,0,1,.13.23.18.18,0,0,1-.22.13l-.94-.26A.19.19,0,0,1,134.9,369.82Z"/><path class="cls-11" d="M139.8,372.25l.39-.95a.18.18,0,0,1,.25-.07.19.19,0,0,1,.07.25l-.38.95a.19.19,0,0,1-.26.07A.2.2,0,0,1,139.8,372.25Z"/><path class="cls-11" d="M133.82,376.62a.19.19,0,0,1,.25-.07l.94.4a.18.18,0,0,1,.07.25.19.19,0,0,1-.25.07l-.94-.39A.19.19,0,0,1,133.82,376.62Z"/><path class="cls-11" d="M129.75,373.21l.55-.93a.18.18,0,0,1,.32.18l-.55.93a.18.18,0,0,1-.25.07A.17.17,0,0,1,129.75,373.21Z"/><path class="cls-11" d="M127.52,366.21a.19.19,0,0,1,.26,0l.95.79a.18.18,0,0,1-.26.26l-1-.79A.19.19,0,0,1,127.52,366.21Z"/><path class="cls-11" d="M127.73,362.73l.52-.68a.21.21,0,0,1,.13-.05.19.19,0,0,1,.13.05.16.16,0,0,1,.06.13.21.21,0,0,1,0,.13L128,363a.21.21,0,0,1-.13.05.17.17,0,0,1-.13-.05.2.2,0,0,1-.06-.13A.18.18,0,0,1,127.73,362.73Z"/><path class="cls-11" d="M129,358.21a.19.19,0,0,1,.23-.13,1.84,1.84,0,0,1,1.21.88.19.19,0,0,1-.32.19A.42.42,0,0,0,130,359l0,0h0l0-.06-.12-.12-.07-.06,0,0h0a1.64,1.64,0,0,0-.29-.16l0,0h0l-.09,0-.17-.05A.18.18,0,0,1,129,358.21Z"/><path class="cls-11" d="M132.56,355.52l.82-.79a.2.2,0,0,1,.26,0,.18.18,0,0,1,0,.26l-.81.79a.19.19,0,0,1-.27,0A.2.2,0,0,1,132.56,355.52Z"/><path class="cls-11" d="M136.58,352.74l.8-.54a.2.2,0,0,1,.26.06.2.2,0,0,1-.07.26l-.8.54a.19.19,0,0,1-.25-.06A.2.2,0,0,1,136.58,352.74Z"/><path class="cls-11" d="M139.81,351.22a.2.2,0,0,1,.26.07l.81,1.07a.18.18,0,0,1-.07.25.19.19,0,0,1-.25-.06l-.81-1.07A.19.19,0,0,1,139.81,351.22Z"/><path class="cls-11" d="M136.33,355.89a.2.2,0,0,1,.26,0l.67.67a.19.19,0,0,1,0,.26.18.18,0,0,1-.26,0l-.68-.66A.21.21,0,0,1,136.33,355.89Z"/><path class="cls-11" d="M133.2,350a.18.18,0,0,1,.25.06l.08.1h0v0l.05,0a1,1,0,0,0,.18.18l0,0h0l0,0,.1.07.12.06.05,0h0a.28.28,0,0,1,.11.08.23.23,0,0,1,0,.14.2.2,0,0,1-.23.14,1.94,1.94,0,0,1-.92-.75A.18.18,0,0,1,133.2,350Z"/><path class="cls-11" d="M133.53,350.17Z"/><path class="cls-11" d="M137.06,347.66l.79-.55a.2.2,0,0,1,.26.06.2.2,0,0,1-.06.26l-.8.55a.19.19,0,0,1-.25-.06A.19.19,0,0,1,137.06,347.66Z"/><path class="cls-11" d="M140.73,345.34a1.42,1.42,0,0,1,1.07-.47.2.2,0,0,1,.19.18.19.19,0,0,1-.18.19h-.22a1.09,1.09,0,0,0-.24.07h0l0,0-.11.07,0,0h0l0,0-.1.09a.18.18,0,0,1-.26,0A.19.19,0,0,1,140.73,345.34Z"/><path class="cls-11" d="M136.42,343.14a3.93,3.93,0,0,1,.94-.62.2.2,0,0,1,.26.06.18.18,0,0,1-.07.25c-.16.08-.31.17-.46.26l-.22.15-.05,0h0l0,0-.11.09a.18.18,0,0,1-.26-.26Z"/><path class="cls-11" d="M135.55,345.39a.19.19,0,0,1,.25.07c.14.22.28.44.41.66a.18.18,0,1,1-.31.19l-.41-.66A.19.19,0,0,1,135.55,345.39Z"/><path class="cls-11" d="M139.47,341.21a.18.18,0,0,1,.26,0l.69.79a.18.18,0,0,1-.26.26l-.69-.78A.19.19,0,0,1,139.47,341.21Z"/><path class="cls-11" d="M135.69,338.4l.79-.56a.18.18,0,0,1,.25.06.19.19,0,0,1-.06.25l-.79.57a.18.18,0,0,1-.25-.07A.19.19,0,0,1,135.69,338.4Z"/><path class="cls-11" d="M126.38,342.2l.92-.7a.19.19,0,0,1,.19.32l-.92.69a.19.19,0,0,1-.26-.06A.18.18,0,0,1,126.38,342.2Z"/><path class="cls-11" d="M129.82,344.66c.09,0,.22,0,.23.13l.16.93c0,.1,0,.21-.13.23a.19.19,0,0,1-.23-.12l-.15-.94A.19.19,0,0,1,129.82,344.66Z"/><path class="cls-11" d="M131.23,342.11s0,0,0,0Z"/><path class="cls-11" d="M130.9,341.19a.19.19,0,0,1,.26,0,1.61,1.61,0,0,1,.44.95.19.19,0,0,1-.18.19.2.2,0,0,1-.19-.18v0h0a.07.07,0,0,1,0-.05l0-.1,0-.1,0-.05h0v0l-.11-.19,0,0v0l-.08-.08A.18.18,0,0,1,130.9,341.19Z"/><path class="cls-11" d="M123.58,349a1.13,1.13,0,0,1,.78-.63.2.2,0,0,1,.23.13.19.19,0,0,1-.13.23.19.19,0,0,0-.1,0h-.07l-.09.05,0,0,0,0L124,349l0,0,0,0,0,.1a.14.14,0,0,1-.1.08.25.25,0,0,1-.15,0A.2.2,0,0,1,123.58,349Z"/><path class="cls-11" d="M124.31,348.77Z"/><path class="cls-11" d="M127.29,349.54a.19.19,0,0,1,.23.13c.11.49.23,1,.34,1.46a.19.19,0,0,1-.13.23.19.19,0,0,1-.23-.13l-.33-1.46A.19.19,0,0,1,127.29,349.54Z"/><path class="cls-11" d="M126.25,345.84a.21.21,0,0,1,.12,0h0l.08,0,.07,0,0-.05a.21.21,0,0,0,0-.06.31.31,0,0,0,0-.08v0a.17.17,0,0,1,.05-.13.19.19,0,0,1,.26,0,.2.2,0,0,1,.06.13.73.73,0,0,1-.07.24.46.46,0,0,1-.11.16.61.61,0,0,1-.16.12.55.55,0,0,1-.24.07.15.15,0,0,1-.13,0,.16.16,0,0,1-.06-.13A.19.19,0,0,1,126.25,345.84Z"/><path class="cls-11" d="M121.94,354.48l.8-.94a.18.18,0,0,1,.26,0,.19.19,0,0,1,0,.26l-.79.95a.19.19,0,0,1-.26,0A.2.2,0,0,1,121.94,354.48Z"/><path class="cls-11" d="M125.2,356.14a.19.19,0,0,1,.19.18l0,1.21a.19.19,0,0,1-.19.18.17.17,0,0,1-.18-.18l0-1.21A.18.18,0,0,1,125.2,356.14Z"/><path class="cls-11" d="M122.15,361.15l.38-1.08a.2.2,0,0,1,.23-.13.19.19,0,0,1,.13.22l-.39,1.08a.18.18,0,0,1-.22.14A.19.19,0,0,1,122.15,361.15Z"/><path class="cls-11" d="M119.33,361.74a1.2,1.2,0,0,1,.33,0,1.43,1.43,0,0,1,.27.09,1,1,0,0,1,.41.4.19.19,0,0,1-.32.19.27.27,0,0,0-.06-.1h0s0,0,0,0l0,0h0l-.09-.06,0,0h0l-.1,0h-.13s-.09,0,0,0a.19.19,0,0,1-.15,0,.15.15,0,0,1-.08-.11C119.19,361.88,119.23,361.75,119.33,361.74Z"/><path class="cls-11" d="M119.87,362.22h0Z"/><path class="cls-11" d="M121.21,366.6l.67-.68a.18.18,0,0,1,.26,0,.19.19,0,0,1,0,.26l-.67.67a.18.18,0,1,1-.27-.25Z"/><path class="cls-11" d="M119.21,368a.19.19,0,0,1,.19.18l0,1.35a.19.19,0,0,1-.18.18.19.19,0,0,1-.19-.18l0-1.34A.19.19,0,0,1,119.21,368Z"/><path class="cls-11" d="M117.3,373.78l.8-.68a.18.18,0,0,1,.27.25l-.8.68a.19.19,0,0,1-.26,0A.18.18,0,0,1,117.3,373.78Z"/><path class="cls-11" d="M155.6,335.53a.2.2,0,0,1,.23.13l.25.94a.18.18,0,0,1-.12.23.19.19,0,0,1-.23-.13c-.08-.31-.17-.63-.26-.94A.19.19,0,0,1,155.6,335.53Z"/><path class="cls-11" d="M153,338.45l.92-.83a.18.18,0,0,1,.26,0,.19.19,0,0,1,0,.26l-.92.82a.19.19,0,0,1-.26,0A.18.18,0,0,1,153,338.45Z"/><path class="cls-11" d="M151.25,339.76a.19.19,0,0,1,.19.18l0,1.34a.19.19,0,1,1-.37,0l0-1.34A.19.19,0,0,1,151.25,339.76Z"/><path class="cls-11" d="M151.55,345.1Z"/><path class="cls-11" d="M151.12,345.44a1.32,1.32,0,0,0,.2-.12l.05,0h0l0,0,.08-.08.08-.09h0v0l0-.05.06-.1,0-.05s0-.08,0,0a.28.28,0,0,1,.08-.11.23.23,0,0,1,.14,0,.22.22,0,0,1,.12.09.22.22,0,0,1,0,.14,1.5,1.5,0,0,1-.31.49,1.31,1.31,0,0,1-.43.31.14.14,0,0,1-.14,0,.18.18,0,0,1,0-.33Z"/><path class="cls-11" d="M151.37,345.29h0S151.33,345.31,151.37,345.29Z"/><path class="cls-11" d="M147.36,345.49l.81-.38a.2.2,0,0,1,.26.06.18.18,0,0,1-.07.25l-.81.39a.18.18,0,0,1-.25-.07A.18.18,0,0,1,147.36,345.49Z"/><path class="cls-11" d="M148.3,348.66a.2.2,0,0,1,.19.19,2.44,2.44,0,0,0,0,.27s0,0,0,.07v0l0,.14a2.41,2.41,0,0,0,.08.25.46.46,0,0,0,0,.1l.06.12a.19.19,0,0,1-.32.2,2.43,2.43,0,0,1-.29-1.18A.19.19,0,0,1,148.3,348.66Z"/><path class="cls-11" d="M145.09,349.43a2.24,2.24,0,0,1,1.34-.61.18.18,0,0,1,.18.18.19.19,0,0,1-.18.19,2,2,0,0,0-.57.15,2.27,2.27,0,0,0-.51.34.19.19,0,0,1-.26,0A.18.18,0,0,1,145.09,349.43Z"/><path class="cls-11" d="M144.68,343.76a.19.19,0,0,1,.23.13l.32.92a.18.18,0,1,1-.35.1l-.32-.92A.19.19,0,0,1,144.68,343.76Z"/><path class="cls-11" d="M132.31,317.18a5.06,5.06,0,0,1-2.91-.5c-.64-.4-.87-.85-2-1.81a16.08,16.08,0,0,0-1.37-1,7.22,7.22,0,0,1,7.75-3,8.65,8.65,0,0,1,4.22,2.56c1.47,1.58,1.52,1.93,1.48,2.05-.12.4-.61.52-2.19.88C133.4,317.16,132.88,317.19,132.31,317.18Z"/><path class="cls-5" d="M124.65,312.13l-.12-.35c1.48-.49,1.65-1.4,1.65-1.44l.37.06C126.54,310.45,126.35,311.56,124.65,312.13Z"/><path class="cls-9" d="M131.21,315.05a4.51,4.51,0,0,1-1-.08,6.54,6.54,0,0,1-3.23-1.83l.27-.25a6.38,6.38,0,0,0,3,1.72c1.86.42,7.86-1.21,7.92-1.23l.1.36A39.41,39.41,0,0,1,131.21,315.05Z"/><polygon class="cls-11" points="146.91 328.33 158.72 335.2 167.75 318.1 156.09 310.12 146.91 328.33"/><polygon class="cls-9" points="146.1 328.4 158.72 335.2 167.75 318.1 154.86 310.88 146.1 328.4"/><path class="cls-11" d="M158.8,335.45l-12.94-7,8.92-17.86L168,318Zm-12.45-7.13L158.64,335l8.86-16.77-12.56-7.05Z"/><polygon class="cls-9" points="146.78 330.3 158.72 335.2 167.75 318.1 155.33 313.24 146.78 330.3"/><path class="cls-11" d="M158.81,335.44l-12.28-5.05L155.24,313,168,318ZM147,330.2l11.6,4.77,8.85-16.77-12.07-4.73Z"/><polygon class="cls-9" points="147.51 331.86 158.72 335.2 167.75 318.1 155.35 316.24 147.51 331.86"/><polygon class="cls-7" points="147.51 331.86 158.87 335.41 167.98 318.14 155.35 316.24 147.51 331.86"/><polygon class="cls-9" points="163.79 321.3 156.23 319.93 155.68 321.37 163.04 322.78 163.79 321.3"/><path class="cls-10" d="M161.07,325.52a12.48,12.48,0,0,1,3.28,1.17c.34.41.32.91,0,1a14.55,14.55,0,0,1-3.74-1.68A.36.36,0,0,1,161.07,325.52Z"/><path class="cls-10" d="M161,326.79a12.74,12.74,0,0,1,3.29,1.16c.34.41.32.91,0,1a13.76,13.76,0,0,1-3.74-1.68A.35.35,0,0,1,161,326.79Z"/><path class="cls-10" d="M160.62,327.89c.27.07,3.12,1.08,3.42,1.52a.58.58,0,0,1-.31.92,14.67,14.67,0,0,1-3.57-2A.36.36,0,0,1,160.62,327.89Z"/><path class="cls-10" d="M160.08,328.94a11.28,11.28,0,0,1,2.84,1.53c.22.43.09.9-.19.91a12.28,12.28,0,0,1-3.15-2.07A.38.38,0,0,1,160.08,328.94Z"/><path class="cls-11" d="M164.4,327.84a16.86,16.86,0,0,1-3.65-1.53c-.19-.12-.26-.2-.28-.29a.54.54,0,0,1,.13-.52.54.54,0,0,1,.49-.16c.22,0,3,.75,3.41,1.23a1.05,1.05,0,0,1,.25,1,.42.42,0,0,1-.32.3Zm-3.58-1.93a18.35,18.35,0,0,0,3.55,1.57s0,0,0-.06a.73.73,0,0,0-.2-.61,12.82,12.82,0,0,0-3.17-1.1h0a.18.18,0,0,0-.17,0A.22.22,0,0,0,160.82,325.91Z"/><path class="cls-11" d="M164.29,329.11a17.19,17.19,0,0,1-3.66-1.54c-.18-.12-.25-.19-.27-.29a.54.54,0,0,1,.12-.51.57.57,0,0,1,.5-.16h0c.21,0,3,.75,3.4,1.23a1,1,0,0,1,.26,1,.42.42,0,0,1-.32.3Zm-3.58-1.94a17.21,17.21,0,0,0,3.55,1.57s0,0,0-.06a.7.7,0,0,0-.19-.61,12.82,12.82,0,0,0-3.17-1.1h0a.22.22,0,0,0-.18,0A.19.19,0,0,0,160.71,327.17Z"/><path class="cls-11" d="M163.74,330.51a9.14,9.14,0,0,1-2-.91c-1.75-1-1.77-1.18-1.79-1.27a.56.56,0,0,1,.18-.5.57.57,0,0,1,.51-.12c.14,0,3.16,1.06,3.53,1.6a.79.79,0,0,1,.09.78.75.75,0,0,1-.52.42Zm-3.4-2.25a17.34,17.34,0,0,0,3.39,1.88c.05,0,.15-.08.21-.2a.42.42,0,0,0-.05-.42,15,15,0,0,0-3.32-1.45h0a.23.23,0,0,0-.17,0A.21.21,0,0,0,160.34,328.26Z"/><path class="cls-11" d="M162.74,331.57a13.57,13.57,0,0,1-3.16-2c-.11-.11-.19-.2-.18-.31a.56.56,0,0,1,.23-.46.58.58,0,0,1,.5-.08c.2.07,2.67,1.11,3,1.63a1,1,0,0,1,0,.92.47.47,0,0,1-.37.26Zm-3-2.29a14.61,14.61,0,0,0,3,1.92s0,0,.06-.07a.63.63,0,0,0-.05-.57,11.6,11.6,0,0,0-2.72-1.44h0a.22.22,0,0,0-.18,0A.18.18,0,0,0,159.77,329.28Z"/><polygon class="cls-10" points="311.72 348.14 307.53 351.56 308.06 354.29 309.91 354.93 314.64 351.53 311.72 348.14"/><path class="cls-6" d="M311.14,354.4s.05,10-1.35,10.89-1.74.42-1.74.42l-4.75-13.28s1-1.87,2.17-2.08a12.18,12.18,0,0,1,3.08.11S307.69,354.9,311.14,354.4Z"/><polygon class="cls-11" points="303.3 352.43 302.27 352.81 307.26 366.12 308.05 365.71 303.3 352.43"/><path class="cls-9" d="M311.18,359.79l-2.42-.26-.07-1.51,2.57.37Zm-2-.62,1.66.18,0-.62-1.73-.25Z"/><path class="cls-9" d="M311,361.84l-2.11-.21-.15-1.27,2.38.22Zm-1.75-.58,1.39.14,0-.46-1.48-.14Z"/><path class="cls-11" d="M310.28,355c.43.09.87.18,1.3.25a2.14,2.14,0,0,0,1.37-.13c.18-.1.39-.26.34-.49a.8.8,0,0,0-.35-.44,1.74,1.74,0,0,0-1.1-.19,3.61,3.61,0,0,0-.65.15.22.22,0,0,1,.05-.08,4.38,4.38,0,0,0,.43-1.05.52.52,0,0,0-.13-.53.38.38,0,0,0-.51,0,2.25,2.25,0,0,0-.34.47,4.66,4.66,0,0,0-.25.5,3.8,3.8,0,0,0-.29,1.1h0a.17.17,0,0,0-.19.08,6.56,6.56,0,0,0-1.54.6.2.2,0,0,0,0,.28.2.2,0,0,0,.28,0,6.77,6.77,0,0,1,1.15-.47l-.19.29a3.64,3.64,0,0,1-.48.56.2.2,0,0,0,.31.25A4.58,4.58,0,0,0,310.28,355Zm.49-1.29a4,4,0,0,1,.24-.51,2,2,0,0,1,.16-.24.44.44,0,0,1,.08-.11l0,0h0c.05.1-.06.32-.1.41a4.38,4.38,0,0,1-.23.54,2.24,2.24,0,0,1-.35.5A3.5,3.5,0,0,1,310.77,353.7Zm1.12.69a1.87,1.87,0,0,1,.58,0,.92.92,0,0,1,.23.09l.11.08a.31.31,0,0,0,.07.09h0s-.11.08-.16.1a.8.8,0,0,1-.3.09,2.18,2.18,0,0,1-.72,0c-.29,0-.58-.1-.87-.16A3.57,3.57,0,0,1,311.89,354.39Z"/><path class="cls-10" d="M298.69,369.83l.22,4.63s1,2.8,2.18,2.83,2.07-2.68,2.07-2.68l-.2-4.78Z"/><path class="cls-6" d="M303.27,373.28s9.41,3.48,9.72,5.1-.21,1.77-.21,1.77l-14.11-.21s-1.39-1.62-1.18-2.76a12,12,0,0,1,1.18-2.85S302.53,376.69,303.27,373.28Z"/><polygon class="cls-11" points="298.67 379.94 298.67 381.04 312.88 381.04 312.78 380.15 298.67 379.94"/><path class="cls-9" d="M307.24,377.31l-1.44-.46,1.25-2.27,1.28.57Zm-.86-.69.65.21.75-1.49-.56-.25Z"/><path class="cls-9" d="M309.25,377.93l-1.25-.31,1.05-2.14,1.13.55Zm-.67-.58.45.12.62-1.25-.42-.21Z"/><path class="cls-11" d="M303.52,374.3c.23-.38.47-.75.69-1.13a2.11,2.11,0,0,0,.36-1.33c0-.2-.11-.46-.34-.49a.78.78,0,0,0-.53.17,1.7,1.7,0,0,0-.57,1,5,5,0,0,0-.09.66l-.06-.08a4.06,4.06,0,0,0-.83-.77.53.53,0,0,0-.54-.06.38.38,0,0,0-.17.48,1.82,1.82,0,0,0,.31.47,5.14,5.14,0,0,0,.38.42,3.94,3.94,0,0,0,.93.66v0a.18.18,0,0,0,0,.2,6.59,6.59,0,0,0,0,1.66c0,.1.15.16.24.14a.2.2,0,0,0,.14-.25,5.7,5.7,0,0,1,0-1.24,2.83,2.83,0,0,1,.2.28,3.72,3.72,0,0,1,.36.65.22.22,0,0,0,.28.07.23.23,0,0,0,.07-.28A4.84,4.84,0,0,0,303.52,374.3Zm-1-.91a3.78,3.78,0,0,1-.39-.41,2,2,0,0,1-.17-.23,1,1,0,0,0-.08-.11l0,0h0c.11,0,.28.18.35.24a4.17,4.17,0,0,1,.43.41,2.1,2.1,0,0,1,.34.5A3.73,3.73,0,0,1,302.48,373.39Zm1-.81a1.67,1.67,0,0,1,.23-.53.74.74,0,0,1,.16-.19l.12-.07a.3.3,0,0,0,.1,0h0s0,.13,0,.18a1.17,1.17,0,0,1,0,.32,2.36,2.36,0,0,1-.27.66c-.14.26-.3.51-.46.76A4.06,4.06,0,0,1,303.52,372.58Z"/><path class="cls-11" d="M311,302.65s26.49,24.43,27.18,26,1.38,4.27-1,8.07-15,14.42-17,15.11a26.05,26.05,0,0,1-6.21.69l-3-4.28s4.28-6.62,5.93-7.73,8-7.72,8-7.72l-22.61-17.25Z"/><path class="cls-11" d="M293.77,302.65s-3.73,6.49-1.11,24.84,3,23.46,2.76,25.95-.54,7.31.08,10.21a31.91,31.91,0,0,0,3,7h4.83s2.35-19.6,2.48-21.53,4.14-45.54,4.14-45.54Z"/><path class="cls-4" d="M317.93,292.64c-2.61-18.73-6.72-21.29-6.72-21.29a9.35,9.35,0,0,0-4.33-1.31c-3.29,4.18,2.69,19.82,3,21.48.24,1.11,5.19,9.52,8.43,14.94a30.25,30.25,0,0,0,5.07-1.41Z"/><path class="cls-4" d="M295.89,269.37a35.85,35.85,0,0,0-5.38,5.2,32.33,32.33,0,0,0-2.75,3.77c-3.26,5.61,1.9,12.77,3.5,23.94a48.61,48.61,0,0,1,.14,12.53c1.38.07,2.54-.07,5,0,5.79.07,8.69.11,10.65-.42a29.72,29.72,0,0,0,10.37-5.74,97.36,97.36,0,0,1-3.42-17c-1.32-11.77.18-17.72-3.67-21.18C308.33,268.61,304.38,267.1,295.89,269.37Z"/><path class="cls-11" d="M315.7,302.7a99.18,99.18,0,0,1-1.87-11.05c-.42-3.78-.55-6.89-.67-9.64-.24-5.69-.38-9.13-2.93-11.42l.27-.3c2.67,2.41,2.82,5.91,3.06,11.7.12,2.74.25,5.85.66,9.61a98.1,98.1,0,0,0,1.87,11Z"/><path class="cls-9" d="M315.2,295.25q1.05-6.13,2.09-12.27l6.24-10-5.22,19.48C317.27,293.42,316.23,294.33,315.2,295.25Z"/><path class="cls-11" d="M314.91,295.77l2.21-12.89,6.95-11.08-5.58,20.82Zm2.57-12.72-2,11.67,2.64-2.32L323,274.27Z"/><path class="cls-9" d="M312.7,295l5.55-13,9-9.62-10.68,20.22Z"/><path class="cls-11" d="M312.27,295.47l5.83-13.62,10-10.72-11.41,21.6Zm6.15-13.37-5.29,12.36,3.27-2,10-18.85Z"/><path class="cls-7" d="M307.7,271.62,318.25,282l11.43-7.78L321,291.69l-9.77,6.74-11.59-10.22Z"/><path class="cls-7" d="M310.54,297.83l7.16-16.38,1.21.09S311.05,298.81,310.54,297.83Z"/><path class="cls-11" d="M311.16,298.56h-.07a1,1,0,0,1-.73-.63l0-.09,0-.08,7.22-16.51,1.63.12-7.44,16.89A.85.85,0,0,1,311.16,298.56Zm-.39-.74c.11.2.24.32.37.33a.4.4,0,0,0,.31-.14l7.16-16.29-.78-.06Z"/><polygon class="cls-9" points="319.37 283.37 325.99 279.06 324.75 281.61 318.71 285.47 319.37 283.37"/><path class="cls-9" d="M313,287l-7.79-7.16.83-1.71,7.73,7.28Zm-7.3-7.25,7.17,6.59.42-.84-7.13-6.7Z"/><path class="cls-9" d="M314.23,284.47l-7.8-7.15.84-1.72,7.73,7.28Zm-7.31-7.25,7.18,6.59.41-.84-7.12-6.7Z"/><path class="cls-10" d="M298.18,261.1l-2.95,10.64s5.42,4.44,8.15-1.31l1.27-8.46Z"/><path class="cls-11" d="M298.18,261.1l-.24.87a7.36,7.36,0,0,0,6.07,4.26l.64-4.26Z"/><path class="cls-10" d="M311.67,292s1.62-1.2,1.74-1.77a6.7,6.7,0,0,1,1.45-2.65,16.59,16.59,0,0,1,3-1.83.56.56,0,0,1,.34.76c-.13.34-1.79,1.7-1.7,2l.08.25s5.7-4.33,5.95-4.33.77.55.64.8-3.91,2.81-3.87,3,4.72-3,4.89-2.91a1.1,1.1,0,0,1,.22,1.06c-.17.34-4.51,2.68-4.43,2.89s4.21-1.87,4.49-1.78a.5.5,0,0,1,.28.74c-.22.28-4.51,2.06-4.47,2.28s3.36-1.24,3.53-.85.21.37,0,.61-3.79,1.56-3.91,1.77a10.52,10.52,0,0,1-4.34,1.23L313,294.65Z"/><path class="cls-4" d="M290.68,276.42s-3.49,1.09-3.58,3.66,5.24,23.86,7.32,24.7,19.46-10.15,19.46-10.15l-2-3.41L298.33,296s-1.63-16.71-3.1-18S293.34,276.51,290.68,276.42Z"/><path class="cls-11" d="M298.15,296.24l0-.26c0-.07-.73-7.46-1.64-12.71l.4-.07c.81,4.71,1.48,11.14,1.61,12.49L311.81,291l.14.38Z"/><path class="cls-11" d="M294.67,305a.74.74,0,0,1-.32-.05c-2.07-.82-6.53-18.47-7.31-23.53l.39-.07c.93,6,5.42,22.57,7.06,23.23,1.07.42,7.48-2.86,17.14-8.8l.21.34C306.32,299.53,297,305,294.67,305Z"/><path class="cls-10" d="M321.34,310a11.81,11.81,0,0,1,1.21,2.49,15.77,15.77,0,0,0,.66,3.08A12.3,12.3,0,0,0,325.1,318c.3.13.86-.16.83-.39s-1.9-2.75-1.12-3.21,1.48.46,1.74.82,2,4.55,2.32,5.07.85-.62.69-1.28a49.21,49.21,0,0,0-1.83-5.14c-.27-.33-2.66-3-2.82-3.21s-.79-2-.79-2Z"/><path class="cls-10" d="M310.32,256.5a6.94,6.94,0,1,1-6.94-6.94A6.94,6.94,0,0,1,310.32,256.5Z"/><rect class="cls-9" x="305.81" y="316.35" width="7.5" height="0.4" transform="translate(-87.08 513.3) rotate(-72.02)"/><path class="cls-4" d="M318.34,306.46l2.78,4.61,4-2.19-1.69-3.83A30.25,30.25,0,0,1,318.34,306.46Z"/><path class="cls-9" d="M293,321.51l-.19-.35s2.6-1.41,2.93-2.78a5.41,5.41,0,0,0,0-2.49l.38-.12a5.51,5.51,0,0,1,0,2.7C295.8,320,293.15,321.45,293,321.51Z"/><path class="cls-9" d="M299.42,369c-2.18-5.75-1.3-16.56-.95-19.13.15-1.08-2.64-18.32-4.13-27.29l.39-.07c.18,1.06,4.33,26,4.14,27.41-.35,2.56-1.23,13.27.92,18.94Z"/><path class="cls-9" d="M314.78,348.91l-.27-.3c2.65-2.45,14.89-15.56,14.89-16.71-.4-.75-11.93-7.63-19.59-12.07l.2-.34c3.25,1.88,19.43,11.3,19.77,12.3C330.2,333,316.54,347.28,314.78,348.91Z"/><path class="cls-10" d="M299.62,255.43a2.41,2.41,0,1,1-2.41-2.41A2.41,2.41,0,0,1,299.62,255.43Z"/><path class="cls-11" d="M297.21,257.84a2.41,2.41,0,0,1,0-4.82,2.42,2.42,0,0,1,2,1.06l1.28-2.62,1.68.79c6.45,3,7.77,3.09,8.88,2.65a3.44,3.44,0,0,0,1.74-1.53c1-2.05-.57-5.54-3.28-6.59a5.87,5.87,0,0,0-4.63.4,2.09,2.09,0,0,0-.29-1.68,2.25,2.25,0,0,0-2-.79,2.69,2.69,0,0,0-1.93,1.19,2.46,2.46,0,0,0-3.84-.25,2.65,2.65,0,0,0-.68,1.91,4.78,4.78,0,0,0-2.82,1.24c-2.13,2-1.11,5.56-.9,6.26a5.76,5.76,0,0,0,2.75,3.81,4.47,4.47,0,0,0,1.83.43Z"/><rect class="cls-11" x="296.74" y="254.18" width="0.4" height="1.88" transform="translate(-41.88 451.23) rotate(-70.73)"/><rect class="cls-11" x="296.83" y="255.1" width="0.4" height="1.27" transform="translate(-60.21 94.46) rotate(-16.43)"/><ellipse class="cls-11" cx="303.48" cy="256.6" rx="0.39" ry="0.53"/><path class="cls-11" d="M307.46,256.76c0,.29-.18.53-.39.53s-.38-.24-.38-.53.17-.53.38-.53S307.46,256.47,307.46,256.76Z"/><path class="cls-11" d="M305.89,258.66a2.59,2.59,0,0,0,0-.68c0-.22-.06-.45-.11-.68a.21.21,0,0,0-.23-.16.2.2,0,0,0-.17.23,6.26,6.26,0,0,1,.16,1.14.36.36,0,0,1,0,.18l0,0h-.07a4.17,4.17,0,0,1-.49-.08.2.2,0,0,0-.22.18.21.21,0,0,0,.18.22,3.18,3.18,0,0,0,.62.07A.51.51,0,0,0,305.89,258.66Z"/><rect class="cls-11" x="302.09" y="254.76" width="2" height="0.4" transform="translate(-62.98 103.76) rotate(-17.63)"/><rect class="cls-11" x="307.12" y="254.24" width="0.4" height="1.85" transform="translate(-74.18 373.55) rotate(-56.94)"/><path class="cls-11" d="M303.6,260.61a1.49,1.49,0,0,1-1.34-.9.18.18,0,0,0-.24-.14.19.19,0,0,0-.14.24,1.88,1.88,0,0,0,1.72,1.2A.2.2,0,0,0,303.6,260.61Z"/><polygon class="cls-9" points="489.23 274.87 489.02 275.68 475.05 271.69 475.33 270.67 489.23 274.87"/><path class="cls-10" d="M477.89,264.49l-.65,2.43s1.15,1.56,2.05,1.71a5.6,5.6,0,0,0,2.58-.83l.07-4.1Z"/><path class="cls-11" d="M477.41,266.28a6,6,0,0,0-1.83,2.57,8.59,8.59,0,0,0-.25,1.82l13.9,4.2s.85-1,.45-1.71-7.66-5.91-7.66-5.91S479,268.55,477.41,266.28Z"/><path class="cls-11" d="M474.83,271.82l.37-1.38,14.19,4.29-.41,1.12Zm.62-.92-.18.67,13.49,3.84.16-.44Z"/><path class="cls-9" d="M483.14,268.21c.16-.17.42.09.25.26a3.39,3.39,0,0,0-.72,1.21.2.2,0,0,1-.23.13.17.17,0,0,1-.12-.22A3.73,3.73,0,0,1,483.14,268.21Z"/><path class="cls-9" d="M483.94,268.89a.17.17,0,0,1,.24-.07.18.18,0,0,1,.07.25,3.29,3.29,0,0,0-.49,1.21.2.2,0,0,1-.23.13.19.19,0,0,1-.12-.23A3.56,3.56,0,0,1,483.94,268.89Z"/><path class="cls-9" d="M475.93,268.08a.18.18,0,0,1,.25-.07,4.65,4.65,0,0,1,1.8,3.35c0,.23-.35.24-.36,0a4.28,4.28,0,0,0-1.63-3A.18.18,0,0,1,475.93,268.08Z"/><path class="cls-9" d="M487.2,272.72a2.73,2.73,0,0,1,.93-.89.19.19,0,0,1,.25.07.18.18,0,0,1-.07.25,2.38,2.38,0,0,0-.82.79,3.7,3.7,0,0,0-.5,1c-.07.23-.42.14-.35-.09A3.94,3.94,0,0,1,487.2,272.72Z"/><path class="cls-11" d="M480.68,266.93a.94.94,0,0,0,.71.55,2.09,2.09,0,0,0,.82.08h0a.32.32,0,0,0,.37.05,1.63,1.63,0,0,0,.34-.3l.3-.27a1.42,1.42,0,0,0,.46-.72c0-.26-.08-.58-.38-.57s-.44.31-.58.5l-.5.63a1.56,1.56,0,0,0-.36-.32c-.23-.16-.55-.41-.86-.33A.54.54,0,0,0,480.68,266.93Zm2,.15a1,1,0,0,1-.18.17l0-.05.5-.63.26-.34s.09-.1.12-.1,0,0,0,0c.05.25-.2.48-.36.63Zm-1.63-.43c.09-.17.41.08.51.14a1.49,1.49,0,0,1,.48.42,2,2,0,0,1-.59-.11C481.26,267.05,480.92,266.9,481,266.65Z"/><polygon class="cls-9" points="442.55 272.61 441.77 272.86 437.5 258.71 438.49 258.39 442.55 272.61"/><path class="cls-10" d="M444,256.63l-1.71,1.45s-.66,1.83-.3,2.68,2.57,2,2.57,2l2.21-2.92Z"/><path class="cls-11" d="M442.79,257.68a5.07,5.07,0,0,0-2.66-.06,4.92,4.92,0,0,0-1.64.77l4.06,14.22s1.25.21,1.65-.54.72-9.79.72-9.79a5.16,5.16,0,0,1-1.23-1.27A5.6,5.6,0,0,1,442.79,257.68Z"/><path class="cls-11" d="M437.32,258.76l-.05-.17,1.34-.43,4.16,14.57-1.12.36Zm1.05-.14-.65.2,4.17,13.81.44-.14Z"/><path class="cls-9" d="M444.73,263.77a.18.18,0,0,1-.07.36,3.26,3.26,0,0,0-1.39,0A.2.2,0,0,1,443,264a.19.19,0,0,1,.12-.23A3.62,3.62,0,0,1,444.73,263.77Z"/><path class="cls-9" d="M444.62,264.82a.19.19,0,0,1,0,.37,3.23,3.23,0,0,0-1.26.23.18.18,0,0,1-.23-.12.19.19,0,0,1,.12-.23A3.49,3.49,0,0,1,444.62,264.82Z"/><path class="cls-9" d="M441,257.5c.09,0,.2.08.19.18a4.65,4.65,0,0,1-1.78,3.36c-.19.14-.39-.17-.2-.31a4.29,4.29,0,0,0,1.62-3A.18.18,0,0,1,441,257.5Z"/><path class="cls-9" d="M443.22,269.7a2.66,2.66,0,0,1,1.24.32.21.21,0,0,1,.08.25.18.18,0,0,1-.25.08,2.27,2.27,0,0,0-1.09-.28,3.33,3.33,0,0,0-1.13.13c-.22.06-.34-.29-.11-.35A3.85,3.85,0,0,1,443.22,269.7Z"/><path class="cls-11" d="M444.46,261a1,1,0,0,0-.06.9,1.9,1.9,0,0,0,.38.75v0a.33.33,0,0,0,.16.34,1.53,1.53,0,0,0,.43.13l.38.11a1.3,1.3,0,0,0,.85,0,.44.44,0,0,0,.26-.63c-.15-.22-.49-.21-.73-.23l-.78-.09a1.91,1.91,0,0,0,.06-.48c0-.29,0-.7-.19-.92A.52.52,0,0,0,444.46,261Zm1,1.78c-.05,0-.16,0-.24-.06a.14.14,0,0,0,0-.06l.79.08.42.05s.13,0,.15,0,0,0,0,0c-.18.18-.5.09-.71,0Zm-.53-1.63c.2,0,.16.39.16.51a1.76,1.76,0,0,1-.08.64,2,2,0,0,1-.23-.56C444.67,261.53,444.61,261.15,444.88,261.12Z"/><path class="cls-3" d="M449.55,215.77s29.89,9.36,33.34,12.69S485,238,484.83,239.8s-2.74,24.75-2.74,24.75-.62,1.8-4.42.54l-1.32-29.25-45.42-9.54-.62-10.53Z"/><path class="cls-3" d="M430.32,217.41a10.55,10.55,0,0,0-3,6.19c-.22,3.55,1.85,7.31,5.41,8s27.15,5.51,27.15,5.51-5.39,4-8.13,8.19-8.16,11.52-8.16,11.52A3.92,3.92,0,0,0,446,261s25.54-21.24,25.71-25.11c.09-1.85-1.75-3.11-7.19-6.83a186.78,186.78,0,0,0-22.11-13Z"/><path class="cls-11" d="M471.38,234.91l.33-.15c-.64-1.43-2.65-2.81-7-5.81a185.39,185.39,0,0,0-22.13-13l-.16.33a186.26,186.26,0,0,1,22.09,12.95C468.67,232.12,470.78,233.57,471.38,234.91Z"/><path class="cls-6" d="M432.57,183.94a25.71,25.71,0,0,1,4.31.24,17.26,17.26,0,0,1,2.46.5,16.05,16.05,0,0,1,3.37,1.36s11.59,23.85,10.22,27.11l-1.37,3.25-21.68,2a6.64,6.64,0,0,1-4.6-4.3c-1.25-3.61-.58-11-1.06-13s-1.25-13.66-.38-14.37a9.65,9.65,0,0,1,2.68-1.26Z"/><path class="cls-7" d="M414.32,177c-.31,1.85.61,4.19,2.46,4.75a3.61,3.61,0,0,0,2.75-.41,8.09,8.09,0,0,0,5.15.82,8.53,8.53,0,0,0,5.65-4.16,4.12,4.12,0,0,0,3-1.3,4.4,4.4,0,0,0,1.06-3.45,3.6,3.6,0,0,0-.07-4.24,3.44,3.44,0,0,0-4.2-1,3.63,3.63,0,0,0-2-3.83,3.51,3.51,0,0,0-4.07.81,4.6,4.6,0,0,0-4.76,0,4.83,4.83,0,0,0-2.12,4.92,2.4,2.4,0,0,0-1.41,4.55A4.57,4.57,0,0,0,414.32,177Z"/><path class="cls-10" d="M429.75,173.4a2,2,0,0,0,1.92,2.11,2,2,0,0,0,2.06-1.9,2,2,0,0,0-1.92-2.11A2,2,0,0,0,429.75,173.4Z"/><rect class="cls-11" x="431.2" y="173.08" width="1.55" height="0.36" transform="translate(-31.44 130.03) rotate(-16.53)"/><rect class="cls-11" x="431.36" y="173.58" width="1.05" height="0.36" transform="translate(130.59 528.64) rotate(-71.59)"/><path class="cls-10" d="M423.77,179.87l1.4,6.56a6,6,0,0,0,5.14,1.77c3.16-.47,3.4-2.74,3.4-2.74l-5.37-7.13Z"/><path class="cls-11" d="M424.89,185.11l-1.12-5.24,4.57-1.54,1.73,2.29A12,12,0,0,1,424.89,185.11Z"/><path class="cls-6" d="M441.93,185.77a36.45,36.45,0,0,1,20.42,17.93c6.83,13.9-10.63,2-10.63,2l-5.66-4.17Z"/><path class="cls-6" d="M425.28,186.83s-3.7-1.78-5.52.45-8.6,21.81-8,23.16,2.71,2.66,4,2.43,8.59-10.77,8.59-10.77S428.71,191.11,425.28,186.83Z"/><ellipse class="cls-10" cx="424.73" cy="176.01" rx="6.69" ry="6.82"/><path class="cls-11" d="M424.74,176.31c0,.27-.08.51-.27.54s-.38-.16-.42-.43.08-.51.27-.54S424.7,176.05,424.74,176.31Z"/><path class="cls-11" d="M428,175.94c0,.27-.08.51-.27.54s-.38-.16-.42-.43.08-.51.27-.54S427.94,175.67,428,175.94Z"/><rect class="cls-11" x="422.9" y="174.74" width="1.82" height="0.36" transform="translate(-33.28 210.7) rotate(-26.9)"/><rect class="cls-11" x="427.46" y="173.66" width="0.36" height="1.68" transform="translate(91.17 490.92) rotate(-65.44)"/><path class="cls-11" d="M426.48,176.31l.19.49a1.43,1.43,0,0,1,.08.22.35.35,0,0,0,.08.13c.1.08.26,0,.37.08a.66.66,0,0,1,.34.2.7.7,0,0,1-.4,1.16,1.92,1.92,0,0,1-.79-.05.19.19,0,0,1-.15-.21.19.19,0,0,1,.21-.16,1.23,1.23,0,0,0,.71,0,.32.32,0,0,0,.2-.46.31.31,0,0,0-.24-.17,1,1,0,0,1-.48-.14,1.05,1.05,0,0,1-.24-.44c-.07-.19-.14-.37-.22-.55S426.4,176.09,426.48,176.31Z"/><path class="cls-11" d="M423.58,179.55a.19.19,0,0,1,.25,0,3.25,3.25,0,0,0,1.41.9.19.19,0,0,1,.09.25.18.18,0,0,1-.24.09,3.6,3.6,0,0,1-1.55-1A.19.19,0,0,1,423.58,179.55Z"/><path class="cls-10" d="M422.13,184.19a12.83,12.83,0,0,0-1-3.76c-.68-1.14-2.74-1.1-3.07-1.71s-1.53-3-1.38-4.14-.51-1.27-.74-.86a13.11,13.11,0,0,0,0,4.46c.27.55,2.37,4.92,3,5.35l-.7,2.24,3.13,1.06Z"/><path class="cls-11" d="M418.12,186.38l.6-2.78a30.39,30.39,0,0,1-2.81-5.11l-.11-.23a12.65,12.65,0,0,1,0-4.63.53.53,0,0,1,.64-.28c.13,0,.57.27.44,1.25s.93,3.26,1.36,4c.1.19.54.33,1,.48a3.45,3.45,0,0,1,2.06,1.23,12.62,12.62,0,0,1,1,3.83v0l-.92,3.37Zm2.86-5.85a3.12,3.12,0,0,0-1.86-1.07c-.56-.18-1.05-.33-1.22-.66,0,0-1.58-2.9-1.4-4.25.07-.52-.06-.81-.2-.86s-.15,0-.21.12a14.38,14.38,0,0,0,0,4.29l.12.23c2,4.08,2.6,4.92,2.79,5.06l.1.07-.58,2.69,2.6.95.8-2.92A12.62,12.62,0,0,0,421,180.53Z"/><path class="cls-7" d="M428.62,172.38a1.82,1.82,0,0,1-2.33-1.2,1.46,1.46,0,0,1-1.57,1.47,3.55,3.55,0,0,1-2.13-1.11,4.87,4.87,0,0,1-.48,2.73c-.28.53-.87,1.7-2,1.9a3,3,0,0,1-3.05-2.24c-.58-2.1,1.78-4,2-4.2a5.88,5.88,0,0,1,2.17-1.11,9.95,9.95,0,0,1,7.12.63c.56.27,1.3.53,1.36,1.23A1.88,1.88,0,0,1,428.62,172.38Z"/><path class="cls-6" d="M421.35,186.83C421.19,188,419,204,417.59,210a4.22,4.22,0,0,1-1.83,2.92,3.86,3.86,0,0,1-4.23-1.13c-1.22-1.34-1.21-3.34-.93-5.28,1-7.16,6-17.48,7.62-20.69Z"/><path class="cls-9" d="M415.84,213c1.35-.66,1.75-2.33,1.93-3,1.42-5.9,3.52-21.39,3.76-23.14l-.36,0c-.24,1.75-2.34,17.23-3.76,23.11-.16.66-.53,2.21-1.73,2.8Z"/><polygon class="cls-6" points="427.66 217.4 428 220.9 452.39 216.68 452.01 215.34 427.66 217.4"/><path class="cls-9" d="M428.41,218c.62,0,15.25-.84,18.54-2.1l-.13-.33c-3.24,1.23-18.28,2.06-18.43,2.07Z"/><path class="cls-9" d="M436.79,187.7a.19.19,0,0,1,.26,0l.39.45v-.52a.18.18,0,0,1,.36,0c0,.33,0,.67,0,1a.18.18,0,0,1-.11.17.19.19,0,0,1-.2,0l-.69-.8A.19.19,0,0,1,436.79,187.7Z"/><path class="cls-9" d="M436,193.34a.2.2,0,0,1,.26,0l.54.59.15-.59a.18.18,0,0,1,.22-.13.19.19,0,0,1,.13.23l-.24.9a.18.18,0,0,1-.3.08l-.76-.82A.2.2,0,0,1,436,193.34Z"/><path class="cls-9" d="M442.49,194.33a.2.2,0,0,1,.26,0l.45.35,0-.47a.19.19,0,0,1,.18-.18.19.19,0,0,1,.18.18l0,.84a.17.17,0,0,1-.11.16.19.19,0,0,1-.2,0l-.75-.58A.19.19,0,0,1,442.49,194.33Z"/><path class="cls-9" d="M440.79,187.6a.2.2,0,0,1,.26,0l.17.17.14-.7a.19.19,0,0,1,.23-.13.18.18,0,0,1,.12.22l-.21,1a.18.18,0,0,1-.3.08c-.13-.14-.27-.27-.41-.41A.2.2,0,0,1,440.79,187.6Z"/><path class="cls-9" d="M430.77,190.86a.18.18,0,0,1,.24.06c.05.09.11.17.16.25l.09.12,0,0s0,0,0,0l0,.06a1.62,1.62,0,0,0,.18.19l.1-.49a.18.18,0,0,1,.22-.13.19.19,0,0,1,.13.22l-.17.82a.18.18,0,0,1-.3.08,4.14,4.14,0,0,1-.8-1A.18.18,0,0,1,430.77,190.86Z"/><path class="cls-9" d="M426,189.59a.19.19,0,0,1,.11-.08.18.18,0,0,1,.14,0,.23.23,0,0,1,.08.11h0v.05a.59.59,0,0,0,0,.08l.09.14h0l0,0,0,0,0-.07h0l0,0,.06-.19s0-.06,0-.09,0-.07,0,0v-.05c0-.09.08-.19.18-.18a.19.19,0,0,1,.19.18,1.72,1.72,0,0,1-.31.85.18.18,0,0,1-.13.09.17.17,0,0,1-.15,0,1.49,1.49,0,0,1-.47-.64A.18.18,0,0,1,426,189.59Z"/><path class="cls-9" d="M428,195a.18.18,0,0,1,.25.06,2.45,2.45,0,0,0,.24.38l0,.05s0,0,0,0v0h0l.06-.28a.18.18,0,0,1,.22-.13.18.18,0,0,1,.13.22c-.05.21-.09.41-.14.61a.18.18,0,0,1-.3.08,3.07,3.07,0,0,1-.58-.76A.19.19,0,0,1,428,195Z"/><path class="cls-9" d="M427.39,202.48a.19.19,0,0,1,.25.06,2.06,2.06,0,0,0,.23.41h0l0,0,.08.08h0l0,0,0-.1a.43.43,0,0,0,0-.11v0h0a1.7,1.7,0,0,0,0-.22.18.18,0,0,1,.36,0,1.56,1.56,0,0,1-.25.93.18.18,0,0,1-.28,0,2.22,2.22,0,0,1-.6-.79A.18.18,0,0,1,427.39,202.48Z"/><path class="cls-9" d="M427.07,208.42a.19.19,0,0,1,.23-.12.85.85,0,0,1,.44.29l.13-.29a.17.17,0,0,1,.24-.06.18.18,0,0,1,.07.24c-.09.21-.19.41-.28.62a.18.18,0,0,1-.18.08.16.16,0,0,1-.15-.13s0-.05,0-.08,0,0,0,0h0l0-.08h0l0,0a.46.46,0,0,0-.07-.07h0l0,0,0,0h-.1A.19.19,0,0,1,427.07,208.42Z"/><path class="cls-9" d="M431.8,209.78a.18.18,0,0,1,.25.07l.24.36h0l.07-.08v0h0l0,0a1.18,1.18,0,0,0,.11-.19.41.41,0,0,0,.05-.09l0-.05v0h0a.19.19,0,0,1,.22-.13.19.19,0,0,1,.13.23,2.33,2.33,0,0,1-.57.82.19.19,0,0,1-.29,0l-.38-.55A.18.18,0,0,1,431.8,209.78Z"/><path class="cls-9" d="M432.7,206.34h0l0,0Z"/><polygon class="cls-9" points="432.15 206.24 432.14 206.23 432.14 206.24 432.15 206.24"/><path class="cls-9" d="M432.12,206.22h0l.05.06h0l0,0,.05.08a.58.58,0,0,0,.31.27.39.39,0,0,0,.41-.17,1.35,1.35,0,0,0,.11-.34s0-.06,0-.09l0,0h0l0,0h0l0,0h0a.18.18,0,0,0,.06-.25.18.18,0,0,0-.24-.06.58.58,0,0,0-.24.37,1.24,1.24,0,0,0,0,.16s0,.06,0,.08h0v0h0l0,0,0,0h0a.71.71,0,0,1-.1-.14.63.63,0,0,0-.32-.28.18.18,0,0,0-.1.35Z"/><path class="cls-9" d="M440.77,213a.19.19,0,0,1,.23.12v0a.3.3,0,0,0,0,.08l.07.13c.06-.18.11-.37.16-.56a.19.19,0,0,1,.23-.12.18.18,0,0,1,.12.22c-.08.3-.17.59-.25.89a.18.18,0,0,1-.3.08,1.86,1.86,0,0,1-.44-.67A.17.17,0,0,1,440.77,213Z"/><path class="cls-9" d="M445.94,201.07a.2.2,0,0,1,.26,0,1.75,1.75,0,0,1,.24.23,1.18,1.18,0,0,0,0-.2v0s0,0,0-.07a.62.62,0,0,1,0-.13,2.72,2.72,0,0,0,0-.28.19.19,0,0,1,.18-.18.17.17,0,0,1,.18.18,2.54,2.54,0,0,1-.2,1.19.18.18,0,0,1-.31,0l-.09-.13,0,0h0l-.05-.06a1.26,1.26,0,0,0-.24-.22A.2.2,0,0,1,445.94,201.07Z"/><path class="cls-9" d="M441.88,198.16a.18.18,0,0,1,.24.06l.14.21c.05-.16.09-.31.13-.46a.18.18,0,0,1,.23-.12.18.18,0,0,1,.12.22l-.23.82a.18.18,0,0,1-.15.13.18.18,0,0,1-.18-.08l-.37-.53A.18.18,0,0,1,441.88,198.16Z"/><path class="cls-9" d="M449.21,191.84a.18.18,0,0,1,.22-.13l.56.21a5.46,5.46,0,0,0-.39-.59.19.19,0,0,1,.07-.25.19.19,0,0,1,.25.06,5.25,5.25,0,0,1,.6,1,.18.18,0,0,1-.2.27l-1-.37A.17.17,0,0,1,449.21,191.84Z"/><path class="cls-9" d="M449.52,196.1a.19.19,0,0,1,.25-.07l.24.13-.06-.57a.19.19,0,0,1,.18-.19.2.2,0,0,1,.18.19c0,.29.07.58.1.88a.16.16,0,0,1-.09.15.17.17,0,0,1-.18,0l-.55-.27A.18.18,0,0,1,449.52,196.1Z"/><path class="cls-9" d="M453.53,197.15a.19.19,0,0,1,.25-.07l.72.32a4.34,4.34,0,0,0-.21-.61.2.2,0,0,1,.07-.25.18.18,0,0,1,.25.07,5.56,5.56,0,0,1,.33,1,.19.19,0,0,1-.07.19.18.18,0,0,1-.2,0l-1.08-.47A.19.19,0,0,1,453.53,197.15Z"/><path class="cls-9" d="M452.39,201.35a.21.21,0,0,1,.26,0,.69.69,0,0,0,.11.13l0,0h0l.07.05,0,0h0v-.72a.19.19,0,0,1,.37,0c0,.32,0,.63,0,.95a.18.18,0,0,1-.18.18,1,1,0,0,1-.74-.38A.19.19,0,0,1,452.39,201.35Z"/><path class="cls-9" d="M457.21,201.77a.18.18,0,0,1,.08-.11.19.19,0,0,1,.25.06l0,0,0,0,.08.08,0,0h0l.09.06.1,0h0c0-.2,0-.4-.07-.59a.17.17,0,0,1,.18-.18.18.18,0,0,1,.18.18c0,.28.07.57.1.85a.19.19,0,0,1-.23.18,1.46,1.46,0,0,1-.83-.54A.18.18,0,0,1,457.21,201.77Z"/><path class="cls-9" d="M419,188.46a.61.61,0,0,1,.44-.17.18.18,0,0,1,.18.18V189a.18.18,0,1,1-.36,0v-.25l0,0,0,.06a.19.19,0,0,0,0,.07h0a.19.19,0,0,1-.18.19.18.18,0,0,1-.18-.19A.57.57,0,0,1,419,188.46Z"/><path class="cls-9" d="M416.39,191.3a.23.23,0,0,0,.08.11.23.23,0,0,0,.14,0s.1-.05.11-.09a1.62,1.62,0,0,1,.1-.18h0l0,0,.07-.07,0,0h0l0,0a2.44,2.44,0,0,0,.09.47.18.18,0,0,0,.22.13.19.19,0,0,0,.13-.22,1.54,1.54,0,0,1-.05-.17s0-.07,0-.1v0h0a.55.55,0,0,1,0-.18v-.17a.19.19,0,0,0-.23-.18,1.17,1.17,0,0,0-.72.64A.23.23,0,0,0,416.39,191.3Z"/><path class="cls-9" d="M416.84,191.15h0Z"/><path class="cls-9" d="M417.71,194.53c.12-.09.23-.19.34-.29s.25-.25.42-.25a.27.27,0,0,1,.24.14.54.54,0,0,1,.08.19l.13.43a.19.19,0,0,1-.13.23.19.19,0,0,1-.22-.13c0-.12-.07-.24-.11-.36l0-.09h0l0,0-.14.12-.29.25a.18.18,0,0,1-.26-.26Z"/><path class="cls-9" d="M414,197.11l.4-.36c.13-.12.27-.29.45-.31a.28.28,0,0,1,.29.14,1.09,1.09,0,0,1,.07.24l.12.53a.18.18,0,1,1-.35.09l-.1-.45c0-.05,0-.1,0-.15l-.07.06-.17.16-.34.31a.18.18,0,0,1-.26-.26Z"/><path class="cls-9" d="M415.88,200.26l.55-.47a.18.18,0,0,1,.25,0,1.33,1.33,0,0,1,.3.76.2.2,0,0,1-.19.18.19.19,0,0,1-.18-.18v-.07h0v0a.75.75,0,0,0-.05-.16v0l0,0s0,0,0,0l-.38.33a.2.2,0,0,1-.26,0A.19.19,0,0,1,415.88,200.26Z"/><path class="cls-9" d="M412.18,203.65l.63-.65a.19.19,0,0,1,.31.08l.24.73a.18.18,0,0,1-.35.09l-.15-.43-.43.44a.18.18,0,0,1-.25,0A.19.19,0,0,1,412.18,203.65Z"/><path class="cls-9" d="M414.7,206.57a1.92,1.92,0,0,0,.28-.29h0l0,0,.06-.08.09-.19a.18.18,0,0,1,.25-.06,1,1,0,0,1,.4.8.19.19,0,0,1-.37,0v-.09h0v0a.29.29,0,0,0,0-.09v0h0l0-.07a1.54,1.54,0,0,1-.42.46.2.2,0,0,1-.12.06.16.16,0,0,1-.13-.06A.18.18,0,0,1,414.7,206.57Z"/><path class="cls-9" d="M412.31,209a.2.2,0,0,1,.22.13l.4,1a.19.19,0,0,1-.13.22.18.18,0,0,1-.22-.13l-.33-.86h0l-.09.05,0,0s0,0,0,0l0,0h0l-.06.1v0s0,0,0,0,0,0,0,.06v0h0c0,.09-.08.19-.18.18a.18.18,0,0,1-.18-.18A.91.91,0,0,1,412.31,209Z"/><path class="cls-9" d="M422.78,194.61a.2.2,0,0,1,.19.19v.29h0l0,0h0a1.07,1.07,0,0,0,.16-.14l.07-.07,0-.05h0s0,0,0,0a.31.31,0,0,1,.11-.08.23.23,0,0,1,.14,0,.19.19,0,0,1,.06.25,1.81,1.81,0,0,1-.74.6.19.19,0,0,1-.18,0,.17.17,0,0,1-.09-.16l0-.59A.2.2,0,0,1,422.78,194.61Z"/><path class="cls-9" d="M421.94,190.81a.19.19,0,0,1,.13-.06.16.16,0,0,1,.13.06.13.13,0,0,1,.05.12h0V191l0,.1a1.21,1.21,0,0,0,0,.18l0,.09h0v0a1.24,1.24,0,0,0,.17-.27.19.19,0,0,1,.25-.06.18.18,0,0,1,.06.24,1.88,1.88,0,0,1-.41.56.19.19,0,0,1-.29,0,2.42,2.42,0,0,1-.28-.86A.22.22,0,0,1,421.94,190.81Z"/><path class="cls-9" d="M421.31,200.6a.19.19,0,0,1,.18.18c0,.15,0,.3.05.44l.34-.24a.18.18,0,0,1,.25.07.18.18,0,0,1-.06.24l-.15.1-.07.05,0,0,0,0h0l0,0-.07.06-.13.12a.18.18,0,0,1-.31-.13l-.09-.8A.19.19,0,0,1,421.31,200.6Z"/><path class="cls-11" d="M479.65,264.18a6.48,6.48,0,0,0,2.66-.65l-.17-.32s-2.65,1.35-4.44,0l-.21.29A3.49,3.49,0,0,0,479.65,264.18Z"/><path class="cls-11" d="M479.82,262.13a6.42,6.42,0,0,0,2.73-.7l-.18-.32s-2.95,1.61-4.75-.2l-.26.26A3.39,3.39,0,0,0,479.82,262.13Z"/><path class="cls-11" d="M479.55,245.11c-.13-3.63-.39-7.3-.77-10.91v-.1l-.09,0c-4.68-2.28-9.51-4.37-14.38-6.23-.6-.23-1.22-.45-1.83-.67v.38c.57.21,1.14.41,1.7.63,4.83,1.84,9.62,3.92,14.26,6.18.38,3.56.63,7.19.76,10.78a156.84,156.84,0,0,1-.3,16.51l.37,0A160.11,160.11,0,0,0,479.55,245.11Z"/><path class="cls-11" d="M449.28,258.37l.19-.31a18.51,18.51,0,0,1-2.85-2.05c.7-.81,5-5.79,7.3-9.13a58.62,58.62,0,0,1,6.24-6.81c2.61-2.59,3.44-3.45,3.32-3.83-.05-.19-.15-.51-15.78-4.76-6.36-1.72-12.77-3.41-14.83-4,3.34-1.15,4.36-6.35,4.41-6.59l-.36-.06c0,.06-1.16,5.89-4.81,6.47l-.85.14.84.21c11.94,3.13,29.87,8,31,8.68a28.35,28.35,0,0,1-3.23,3.44,59.48,59.48,0,0,0-6.28,6.86c-2.49,3.62-7.33,9.16-7.38,9.22l-.08.1.07.11A15.64,15.64,0,0,0,449.28,258.37Z"/><rect class="cls-11" x="445.71" y="254.26" width="0.36" height="1.88" transform="translate(-67.61 271.31) rotate(-31.58)"/><path class="cls-11" d="M447.48,260l0-.36c-2.8-.36-3-3.67-3-3.81l-.37,0S444.37,259.59,447.48,260Z"/><path class="cls-9" d="M427.56,209.69l11,2L449,208.05c-.8-6.43-2.18-13.35-3-19.78a57.44,57.44,0,0,0-5.39,2.64,58.56,58.56,0,0,0-5,3.18,36,36,0,0,0-4.52-2,34,34,0,0,0-4.9-1.3C426.88,197,426.87,203.52,427.56,209.69Z"/><path class="cls-3" d="M427.35,210.31l11.4,2,10.81-3.64q-1.23-9.64-2.47-19.28l-11.51,4.7-10.37-2.31Z"/><rect class="cls-11" x="437.44" y="194.06" width="0.36" height="17.75" transform="translate(-27.64 75.55) rotate(-9.57)"/><rect class="cls-11" x="436.43" y="194.35" width="0.36" height="17.75" transform="translate(-27.67 75.26) rotate(-9.55)"/><polygon class="cls-9" points="438.37 196.04 445.8 193.21 445.89 195.49 438.37 197.89 438.37 196.04"/><path class="cls-10" d="M444.15,206s-1.43-.62-1.41-.91a3,3,0,0,0-.29-1.84c-.43-.66-2.46-3.12-3-3.09s-.83.34-.74.57a23.81,23.81,0,0,1,1.68,2.18c-.07.17-5.24-4.89-5.52-4.8s-.61.31-.5.63,3.36,3.42,3.31,3.66-4-3.66-4.29-3.59-.57.32-.37.68,3.86,3.82,3.83,4-3.94-3.25-4.12-3.14-.41.38-.3.64,3.81,3.26,3.77,3.43-2.88-1.92-3.05-1.75-.37.34-.09.62,2.9,2.16,3,2.29a25.74,25.74,0,0,0,3,2.43,10.13,10.13,0,0,0,1.48,0l2.48.64Z"/><path class="cls-6" d="M443.53,205.58s18.28-1.49,20.4.7a3.76,3.76,0,0,1-1.09,6.16c-2.15.79-20.39-3.68-20.39-3.68Z"/><path class="cls-9" d="M462,212.71a2.74,2.74,0,0,0,.88-.1,3.54,3.54,0,0,0,1.45-1.05l-.28-.23a3.15,3.15,0,0,1-1.3.94c-1.65.61-14-2.14-20.27-3.68l-.09.35C443.09,209.11,457.84,212.71,462,212.71Z"/><path class="cls-9" d="M463.24,206.06l.14-.33c-3.83-1.61-19.22-.38-19.87-.33l0,.36C443.7,205.75,459.49,204.49,463.24,206.06Z"/><path class="cls-9" d="M460.93,207.49a.64.64,0,0,1,.19-.13l.22-.1a1.48,1.48,0,0,1,.41-.12.19.19,0,0,1,.23.12.19.19,0,0,1-.13.23,2.37,2.37,0,0,0-.36.09l0,0h0l-.09,0-.11.06h0l.33.24a.18.18,0,0,1,.07.24.18.18,0,0,1-.25.07L461,208a.45.45,0,0,1-.18-.21A.31.31,0,0,1,460.93,207.49Z"/><path class="cls-9" d="M457.93,209.73a.22.22,0,0,1,.09-.1,1.6,1.6,0,0,1,.87-.3.18.18,0,0,1,.18.18.19.19,0,0,1-.18.19h-.16a1.17,1.17,0,0,0-.2.06h0s-.06,0,0,0l-.09,0h0l.26.34a.17.17,0,0,1,0,.14.19.19,0,0,1-.09.11.22.22,0,0,1-.14,0,.28.28,0,0,1-.1-.09l-.37-.48A.22.22,0,0,1,457.93,209.73Z"/><path class="cls-9" d="M455.26,206.81l.85-.43a.18.18,0,0,1,.25.06.19.19,0,0,1-.06.25l-.64.32.06.07h0l0,0,.07,0,.16.09a.18.18,0,0,1-.19.31,2,2,0,0,1-.58-.47.17.17,0,0,1-.05-.15A.18.18,0,0,1,455.26,206.81Z"/><path class="cls-9" d="M453.88,209.89l.78-.13a.32.32,0,0,1,.14,0,.19.19,0,0,1,.09.11.18.18,0,0,1-.13.22l-.56.09h0l0,.05.05,0,0,0h0a.23.23,0,0,1,.08.11.18.18,0,0,1,0,.14.19.19,0,0,1-.25.06,1,1,0,0,1-.39-.53A.18.18,0,0,1,453.88,209.89Z"/><path class="cls-9" d="M450,207.25l.73-.05a.18.18,0,0,1,0,.36l-.35,0s0,0,0,0h0l0,0,.14.08a.18.18,0,0,1,.07.25.19.19,0,0,1-.25.07,1.24,1.24,0,0,1-.55-.51A.18.18,0,0,1,450,207.25Z"/><path class="cls-9" d="M445.32,207.19a4.26,4.26,0,0,1,.82-.3.2.2,0,0,1,.23.13.18.18,0,0,1-.13.22,2.91,2.91,0,0,0-.39.12l-.19.07s0,0,0,0h0v0h0l0,0,0,.05v0l0,0h0l0,0a.18.18,0,0,1,.06.25.17.17,0,0,1-.24.06.7.7,0,0,1-.34-.59A.2.2,0,0,1,445.32,207.19Z"/></g></g></svg>